<?xml version="1.0" encoding="UTF-8"?>
<svg width="24px" height="24px" viewBox="0 0 24 24" version="1.1" xmlns="http://www.w3.org/2000/svg" xmlns:xlink="http://www.w3.org/1999/xlink">
    <!-- Generator: Sketch 55 (78076) - https://sketchapp.com -->
    <title>contacts</title>
    <desc>Created with Sketch.</desc>
    <g id="Page-1" stroke="none" stroke-width="1" fill="none" fill-rule="evenodd">
        <g id="contacts" fill="#000000" fill-rule="nonzero">
            <path d="M8.32,2 C2.705,2 2,2.705 2,8.32 L2,15.68 C2,21.295 2.705,22 8.32,22 L15.68,22 C21.295,22 22,21.295 22,15.68 L22,8.32 C22,2.705 21.295,2 15.68,2 L8.32,2 Z M8.32,0 L15.68,0 C22.4,0 24,1.6 24,8.32 L24,15.68 C24,22.4 22.4,24 15.68,24 L8.32,24 C1.6,24 7.10542736e-15,22.4 7.10542736e-15,15.68 L7.10542736e-15,8.32 C7.10542736e-15,1.6 1.6,0 8.32,0 Z M18.679,9.042 C18.484,9.901 16.618,12.43 16.618,12.43 C16.456,12.68 16.391,12.805 16.618,13.086 L17.673,14.148 C18.331,14.86 18.827,15.461 18.965,15.875 C19.091,16.29 18.872,16.501 18.435,16.501 L16.903,16.501 C16.319,16.501 16.148,16.053 15.109,15.054 C14.2,14.211 13.811,14.102 13.584,14.102 C13.276,14.102 13.183,14.186 13.183,14.607 L13.183,15.929 C13.183,16.292 13.063,16.502 12.089,16.502 C10.466,16.502 8.683,15.554 7.418,13.806 C5.52,11.246 5,9.31 5,8.919 C5,8.7 5.088,8.502 5.525,8.502 L7.057,8.502 C7.448,8.502 7.596,8.667 7.742,9.075 C8.491,11.175 9.754,13.009 10.273,13.009 C10.468,13.009 10.557,12.923 10.557,12.447 L10.557,10.277 C10.5,9.278 9.948,9.196 9.948,8.841 C9.948,8.676 10.094,8.502 10.338,8.502 L12.745,8.502 C13.07,8.502 13.183,8.669 13.183,9.044 L13.183,11.964 C13.183,12.276 13.324,12.386 13.421,12.386 C13.616,12.386 13.778,12.277 14.135,11.933 C15.238,10.746 16.017,8.92 16.017,8.92 C16.114,8.701 16.294,8.503 16.683,8.503 L18.215,8.503 C18.678,8.503 18.775,8.732 18.678,9.045 L18.679,9.042 Z" id="Shape"></path>
        </g>
    </g>
</svg>