<?xml version="1.0" encoding="UTF-8"?>
<svg width="135px" height="40px" viewBox="0 0 135 40" version="1.1" xmlns="http://www.w3.org/2000/svg" xmlns:xlink="http://www.w3.org/1999/xlink">
    <!-- Generator: Sketch 55 (78076) - https://sketchapp.com -->
    <title>appstore_ru</title>
    <desc>Created with Sketch.</desc>
    <g id="Page-1" stroke="none" stroke-width="1" fill="none" fill-rule="evenodd">
        <g id="appstore_ru">
            <rect id="Rectangle" fill="#000000" fill-rule="nonzero" x="0" y="0" width="135" height="40" rx="8"></rect>
            <g id="Group" transform="translate(36.000000, 13.000000)" fill="#FFFFFF" fill-rule="nonzero">
                <path d="M2.48406639,5.1198611 L3.9122256,5.1198611 C4.40975475,5.18663402 4.90907357,5.02637902 5.29206364,4.68297545 C5.6750537,4.33766409 5.90413187,3.83972891 5.92560795,3.30554558 C5.92560795,2.25625691 5.18468324,1.57708096 3.92833266,1.57708096 C3.42006547,1.50076906 2.90284992,1.64766947 2.49838378,1.98344185 C2.09391764,2.31921423 1.83083568,2.8152416 1.77356614,3.35896392 L0.205812417,3.35896392 C0.259502613,2.37072476 0.697972546,1.45116632 1.41384182,0.819685314 C2.1297111,0.188204309 3.05855149,-0.0979653302 3.98023318,0.0298571088 C6.08309919,0.0298571088 7.56315892,1.28518793 7.56315892,3.08996446 C7.57389696,4.33766409 6.76496468,5.42129312 5.62315318,5.69410818 L5.62315318,5.82765401 C6.9904635,5.89251913 8.0517397,7.12304858 7.99804951,8.58060594 C7.89961748,9.59746206 7.42177474,10.5303751 6.67190167,11.1656717 C5.9220286,11.8028761 4.96276377,12.0909535 4.01065763,11.9650389 C3.05676182,12.1043081 2.09033829,11.8238619 1.3350962,11.1885653 C0.578064442,10.5532687 0.0966423525,9.61844784 0,8.59777612 L1.59280914,8.59777612 C1.6894515,9.68712855 2.62724025,10.3891981 4.0124473,10.3891981 C5.39765435,10.3891981 6.29964965,9.59936986 6.29964965,8.48712386 C6.29964965,7.35961548 5.4477652,6.66326936 3.96054678,6.66326936 L2.48764574,6.66326936 L2.48406639,5.1198611 Z" id="Path"></path>
                <path d="M10,9.39062471 C10,7.82812949 11.117927,6.92839427 13.1002115,6.80123683 L15.358276,6.66637288 L15.358276,5.91691463 C15.358276,4.99983975 14.7789529,4.48350348 13.6517715,4.48350348 C12.7337388,4.48350348 12.0988895,4.83414975 11.9156531,5.44681742 L10.3239027,5.44681742 C10.4923321,3.95753406 11.8397673,3 13.7313591,3 C15.8209942,3 17,4.08276487 17,5.914988 L17,11.843222 L15.4156531,11.843222 L15.4156531,10.6236666 L15.286092,10.6236666 C14.7474881,11.5137687 13.7924379,12.0339582 12.7818614,11.9857925 C12.0748281,12.0628576 11.3677948,11.8239557 10.8402961,11.3288124 C10.3109466,10.833669 10.0074035,10.1285232 10.0055526,9.38869809 L10,9.39062471 Z M15.358276,8.64887298 L15.358276,7.92446089 L13.3223162,8.05932484 C12.1747753,8.14024321 11.6546801,8.54483507 11.6546801,9.30970634 C11.6546801,10.0899906 12.3061872,10.5446748 13.2001586,10.5446748 C13.7295082,10.600547 14.2588577,10.4310038 14.6660497,10.072651 C15.0732417,9.7142982 15.3231095,9.20181518 15.358276,8.64887298 L15.358276,8.64887298 Z" id="Shape"></path>
                <polygon id="Path" points="21.7989882 4.49500333 21.7989882 12 20 12 20 3 26 3 26 4.49500333"></polygon>
                <path d="M36,7.20856522 C36,9.79948582 34.6225922,11.4235639 32.4613555,11.4235639 C31.3769322,11.494176 30.3495838,10.9600589 29.8244946,10.0547757 L29.6913199,10.0547757 L29.6913199,14 L28,14 L28,3.13660125 L29.626635,3.13660125 L29.626635,4.4836627 L29.7521998,4.4836627 C30.2848989,3.54759984 31.3236623,2.97546084 32.4423306,3.00080877 C34.6206897,3.00080877 35.9980975,4.61764462 35.9980975,7.20856522 L36,7.20856522 Z M34.2611177,7.20856522 C34.2611177,5.48671651 33.4049941,4.4456408 31.9724138,4.4456408 C30.549346,4.4456408 29.6589774,5.50844331 29.6589774,7.21580748 C29.6589774,8.91411882 30.549346,9.9787319 31.9648038,9.9787319 C33.4049941,9.9787319 34.2611177,8.93765618 34.2611177,7.20856522 Z" id="Shape"></path>
                <path d="M37.8622075,14.9596081 L37.8622075,13.4881872 L38.405773,13.5208854 C39.1405238,13.5766648 39.7984255,13.0554163 39.9315054,12.3129739 L40.0552134,11.8917436 L37,3.19785816 L38.8143844,3.19785816 L40.9305414,10.0779529 L41.0617469,10.0779529 L43.1704065,3.19785816 L44.9360574,3.19785816 L41.7890002,12.2168026 C41.06737,14.3248775 40.2688909,15 38.5482247,15 L37.8584587,14.9596081 L37.8622075,14.9596081 Z M46.2368661,9.39898353 L47.8956783,9.39898353 C48.0587479,10.1625836 48.7560114,10.5607328 49.7306807,10.5607328 C50.8403042,10.5607328 51.5206983,10.0587186 51.5206983,9.27973112 C51.5206983,8.44496424 50.9096557,8.04681506 49.7306807,8.04681506 L48.4673593,8.04681506 L48.4673593,6.71965113 L49.7081883,6.71965113 C50.7147218,6.71965113 51.2282975,6.32150196 51.2282975,5.59829379 C51.2282975,4.96163978 50.7315911,4.47693644 49.7081883,4.47693644 C48.7766294,4.47693644 48.0962352,4.88277932 47.9875221,5.56559554 L46.3830665,5.56559554 C46.6323569,3.93068346 48.1112301,2.80355583 49.7081883,3.02859667 C51.7137578,3.02859667 52.862743,3.95953485 52.862743,5.42326202 C52.8814866,6.26379918 52.3266749,7.00239475 51.5300702,7.19666078 L51.5300702,7.3313006 C52.4822471,7.45824671 53.1926311,8.29493702 53.1813849,9.27973112 C53.1813849,10.9261838 51.8149735,12.0148429 49.7306807,12.0148429 C47.8881808,12.0148429 46.3905639,11.1473778 46.2368661,9.39898353 L46.2368661,9.39898353 Z M55.5805709,11.8571219 L55.5805709,3.19593473 L57.2318856,3.19593473 L57.2318856,9.15278501 L57.3630911,9.15278501 L61.2523965,3.19593473 L62.9037112,3.19593473 L62.9037112,11.8571219 L61.2523965,11.8571219 L61.2523965,5.86757342 L61.1286885,5.86757342 L57.2318856,11.8571219 L55.5805709,11.8571219 Z M72,4.63465737 L69.3421518,4.63465737 L69.3421518,11.8571219 L67.6739678,11.8571219 L67.6739678,4.63465737 L65.0161195,4.63465737 L65.0161195,3.19593473 L72,3.19593473 L72,4.63465737 Z" id="Shape"></path>
                <path d="M80.8947678,9.47844533 C80.4075818,11.1080997 78.8057141,12.1619044 77.0908192,11.979552 C75.9215727,12.010264 74.7971473,11.5323089 74.0157009,10.6723735 C73.2342545,9.81243809 72.8776343,8.65881942 73.0374314,7.51671774 C72.8815318,6.37077706 73.238152,5.21523889 74.0137522,4.34954501 C74.7893524,3.48385114 75.9098803,2.99053999 77.0830242,3.00013748 C79.5248007,3.00013748 81,4.6432283 81,7.35739936 L81,7.95244393 L74.8029936,7.95244393 L74.8029936,8.04841886 C74.7484287,8.6895314 74.9705856,9.32488544 75.4148992,9.79708211 C75.8592129,10.2692788 76.4867085,10.5322501 77.1395378,10.5245721 C77.9852928,10.624386 78.8096116,10.2097743 79.2246941,9.47652584 L80.8947678,9.47844533 Z M74.8029936,6.69325283 L79.232489,6.69325283 C79.2773102,6.10780575 79.0668458,5.53003667 78.6576095,5.10390797 C78.2464245,4.67777928 77.671545,4.44168095 77.0752293,4.45511744 C76.4691698,4.44743944 75.8864953,4.67969878 75.4597203,5.10198847 C75.0309966,5.52427817 74.7951986,6.09820826 74.8029936,6.69325283 L74.8029936,6.69325283 Z" id="Shape"></path>
            </g>
            <g id="Group" transform="translate(8.000000, 8.000000)">
                <polygon id="Path" points="0 0 24 0 24 24 0 24"></polygon>
                <path d="M9,3 L15,3 L15,9 L18.034,9 C18.1958827,8.9998726 18.3418819,9.09733095 18.403849,9.24688395 C18.465816,9.39643695 18.4315321,9.56859537 18.317,9.683 L12.283,15.717 C12.2079727,15.7921108 12.1061637,15.8343147 12,15.8343147 C11.8938363,15.8343147 11.7920273,15.7921108 11.717,15.717 L5.683,9.683 C5.56846792,9.56859537 5.53418397,9.39643695 5.59615103,9.24688395 C5.65811808,9.09733095 5.80411733,8.9998726 5.966,9 L9,9 L9,3 Z M6,18 L18,18 C18.5522847,18 19,18.4477153 19,19 C19,19.5522847 18.5522847,20 18,20 L6,20 C5.44771525,20 5,19.5522847 5,19 C5,18.4477153 5.44771525,18 6,18 Z" id="Shape" fill="#FFFFFF" fill-rule="nonzero"></path>
            </g>
        </g>
    </g>
</svg>