<svg version="1.1" viewBox="0 0 2871 2871" width="256px" height="256px" class="classCode" xml:space="preserve" xmlns="http://www.w3.org/2000/svg" xmlns:xlink="http://www.w3.org/1999/xlink">
        <defs>
            <rect id="rect" width="100" height="100" fill="#000000"/>
            <path id="empty" d="M0,28.6v42.9C0,87.3,12.8,100,28.6,100h42.9c15.9,0,28.6-12.8,28.6-28.6V28.6C100,12.7,87.2,0,71.4,0H28.6 C12.8,0,0,12.8,0,28.6z" fill="#000000"/>
            <path id="b" d="M0,0 L66,0 C84.7776815,-3.44940413e-15 100,15.2223185 100,34 L100,66 C100,84.7776815 84.7776815,100 66,100 L0,100 L0,0 Z" transform="rotate(-90 50 50)" fill="#000000"/>
            <path id="r" d="M0,0 L66,0 C84.7776815,-3.44940413e-15 100,15.2223185 100,34 L100,66 C100,84.7776815 84.7776815,100 66,100 L0,100 L0,0 Z" transform="rotate(-180 50 50)" fill="#000000"/>
            <path id="l" d="M0,0 L66,0 C84.7776815,-3.44940413e-15 100,15.2223185 100,34 L100,66 C100,84.7776815 84.7776815,100 66,100 L0,100 L0,0 Z" fill="#000000"/>
            <path id="t" d="M0,0 L66,0 C84.7776815,-3.44940413e-15 100,15.2223185 100,34 L100,66 C100,84.7776815 84.7776815,100 66,100 L0,100 L0,0 Z" transform="rotate(90 50 50)" fill="#000000"/>
            <path id="l" d="M0,0 L100,0 L100,66 C100,84.7776815 84.7776815,100 66,100 L0,100 L0,0 Z" transform="rotate(-90 50 50)" fill="#000000"/>
            <path id="lt" d="M0,0 L100,0 L100,66 C100,84.7776815 84.7776815,100 66,100 L0,100 L0,0 Z" fill="#000000"/>
            <path id="lb" d="M0,0 L100,0 L100,66 C100,84.7776815 84.7776815,100 66,100 L0,100 L0,0 Z" transform="rotate(-90 50 50)" fill="#000000"/>
            <path id="rb" d="M0,0 L100,0 L100,66 C100,84.7776815 84.7776815,100 66,100 L0,100 L0,0 Z" transform="rotate(-180 50 50)" fill="#000000"/>
            <path id="rt" d="M0,0 L100,0 L100,66 C100,84.7776815 84.7776815,100 66,100 L0,100 L0,0 Z" transform="rotate(90 50 50)" fill="#000000"/>
            <path id="n_lt" d="M30.5,2V0H0v30.5h2C2,14.7,14.8,2,30.5,2z" fill="#000000"/>
            <path id="n_lb" d="M2,69.5H0V100h30.5v-2C14.7,98,2,85.2,2,69.5z" fill="#000000"/>
            <path id="n_rt" d="M98,30.5h2V0H69.5v2C85.3,2,98,14.8,98,30.5z" fill="#000000"/>
            <path id="n_rb" d="M69.5,98v2H100V69.5h-2C98,85.3,85.2,98,69.5,98z" fill="#000000"/>
            <path id="point" d="M600.001786,457.329333 L600.001786,242.658167 C600.001786,147.372368 587.039517,124.122784 581.464617,118.535383 C575.877216,112.960483 552.627632,99.9982143 457.329333,99.9982143 L242.670667,99.9982143 C147.372368,99.9982143 124.122784,112.960483 118.547883,118.535383 C112.972983,124.122784 99.9982143,147.372368 99.9982143,242.658167 L99.9982143,457.329333 C99.9982143,552.627632 112.972983,575.877216 118.547883,581.464617 C124.122784,587.027017 147.372368,600.001786 242.670667,600.001786 L457.329333,600.001786 C552.627632,600.001786 575.877216,587.027017 581.464617,581.464617 C587.039517,575.877216 600.001786,552.627632 600.001786,457.329333 Z M457.329333,0 C653.338333,0 700,46.6616668 700,242.658167 C700,438.667167 700,261.332833 700,457.329333 C700,653.338333 653.338333,700 457.329333,700 C261.332833,700 438.667167,700 242.670667,700 C46.6616668,700 0,653.338333 0,457.329333 C0,261.332833 0,352.118712 0,242.658167 C0,46.6616668 46.6616668,0 242.670667,0 C438.667167,0 261.332833,0 457.329333,0 Z M395.996667,200 C480.004166,200 500,220.008332 500,303.990835 C500,387.998334 500,312.001666 500,395.996667 C500,479.991668 480.004166,500 395.996667,500 C312.001666,500 387.998334,500 304.003333,500 C220.008332,500 200,479.991668 200,395.996667 C200,312.001666 200,350.906061 200,303.990835 C200,220.008332 220.008332,200 304.003333,200 C387.998334,200 312.001666,200 395.996667,200 Z" fill="#000000"/>
            <g id="vk_logo"><path fill="#4680C2" d="M253.066667,0 C457.466667,0 272.533333,0 476.933333,0 C681.333333,0 730,48.6666667 730,253.066667 C730,457.466667 730,272.533333 730,476.933333 C730,681.333333 681.333333,730 476.933333,730 C272.533333,730 457.466667,730 253.066667,730 C48.6666667,730 0,681.333333 0,476.933333 C0,272.533333 0,367.206459 0,253.066667 C0,48.6666667 48.6666667,0 253.066667,0 Z"/><path fill="#FFF" d="M597.816744,251.493445 C601.198942,240.214758 597.816746,231.927083 581.719678,231.927083 L528.490512,231.927083 C514.956087,231.927083 508.716524,239.08642 505.332448,246.981031 C505.332448,246.981031 478.263599,312.960647 439.917002,355.818719 C427.510915,368.224806 421.871102,372.172112 415.10389,372.172112 C411.720753,372.172112 406.822917,368.224806 406.822917,356.947057 L406.822917,251.493445 C406.822917,237.95902 402.895137,231.927083 391.615512,231.927083 L307.969678,231.927083 C299.511836,231.927083 294.425223,238.208719 294.425223,244.162063 C294.425223,256.99245 313.597583,259.951287 315.573845,296.043086 L315.573845,374.428788 C315.573845,391.614583 312.470184,394.730425 305.702972,394.730425 C287.658011,394.730425 243.763595,328.456052 217.730151,252.620844 C212.628223,237.881107 207.511068,231.927083 193.907178,231.927083 L140.678012,231.927083 C125.469678,231.927083 122.427826,239.08642 122.427826,246.981031 C122.427826,261.079625 140.473725,331.006546 206.452402,423.489903 C250.437874,486.648674 312.410515,520.885417 368.803012,520.885417 C402.638134,520.885417 406.823845,513.28125 406.823845,500.183098 L406.823845,452.447917 C406.823845,437.239583 410.029185,434.204421 420.743703,434.204421 C428.638315,434.204421 442.172739,438.151727 473.753063,468.603713 C509.843923,504.694573 515.79398,520.885417 536.094678,520.885417 L589.323845,520.885417 C604.532178,520.885417 612.136345,513.28125 607.749619,498.274853 C602.949226,483.318593 585.717788,461.619053 562.853283,435.89599 C550.446258,421.234166 531.837128,405.444943 526.197316,397.548454 C518.302704,387.399043 520.558441,382.88663 526.197316,373.864619 C526.197316,373.864619 591.049532,282.508661 597.816744,251.493445 Z"/></g>
        </defs>
        <rect x="0" width="2871" height="2871" rx="404" fill="#ffffff"/>
        <g transform="translate(370.08984375, 370.08984375) scale(0.756972112)">
          <g transform="translate(970,0)"><use xlink:href="#b"/></g>
<g transform="translate(1358,0)"><use xlink:href="#n_rb"/></g>
<g transform="translate(1455,0)"><use xlink:href="#b"/></g>
<g transform="translate(1649,0)"><use xlink:href="#rect"/></g>
<g transform="translate(1843,0)"><use xlink:href="#r"/></g>
<g transform="translate(1940,0)"><use xlink:href="#lb"/></g>
<g transform="translate(776,97)"><use xlink:href="#b"/></g>
<g transform="translate(970,97)"><use xlink:href="#t"/></g>
<g transform="translate(1358,97)"><use xlink:href="#r"/></g>
<g transform="translate(1455,97)"><use xlink:href="#rect"/></g>
<g transform="translate(1746,97)"><use xlink:href="#rect"/></g>
<g transform="translate(1940,97)"><use xlink:href="#rect"/></g>
<g transform="translate(776,194)"><use xlink:href="#rt"/></g>
<g transform="translate(873,194)"><use xlink:href="#l"/></g>
<g transform="translate(970,194)"><use xlink:href="#n_rb"/></g>
<g transform="translate(1067,194)"><use xlink:href="#b"/></g>
<g transform="translate(1261,194)"><use xlink:href="#rect"/></g>
<g transform="translate(1455,194)"><use xlink:href="#t"/></g>
<g transform="translate(1940,194)"><use xlink:href="#t"/></g>
<g transform="translate(970,291)"><use xlink:href="#r"/></g>
<g transform="translate(1067,291)"><use xlink:href="#lt"/></g>
<g transform="translate(1358,291)"><use xlink:href="#rect"/></g>
<g transform="translate(1552,291)"><use xlink:href="#n_rb"/></g>
<g transform="translate(1649,291)"><use xlink:href="#rb"/></g>
<g transform="translate(1746,291)"><use xlink:href="#rect"/></g>
<g transform="translate(1843,291)"><use xlink:href="#lb"/></g>
<g transform="translate(1164,388)"><use xlink:href="#rect"/></g>
<g transform="translate(1455,388)"><use xlink:href="#r"/></g>
<g transform="translate(1552,388)"><use xlink:href="#rect"/></g>
<g transform="translate(1649,388)"><use xlink:href="#rect"/></g>
<g transform="translate(1746,388)"><use xlink:href="#rect"/></g>
<g transform="translate(1843,388)"><use xlink:href="#rect"/></g>
<g transform="translate(1940,388)"><use xlink:href="#lb"/></g>
<g transform="translate(1067,485)"><use xlink:href="#rect"/></g>
<g transform="translate(1358,485)"><use xlink:href="#b"/></g>
<g transform="translate(1552,485)"><use xlink:href="#rect"/></g>
<g transform="translate(1843,485)"><use xlink:href="#rt"/></g>
<g transform="translate(1940,485)"><use xlink:href="#rect"/></g>
<g transform="translate(776,582)"><use xlink:href="#rect"/></g>
<g transform="translate(970,582)"><use xlink:href="#rect"/></g>
<g transform="translate(1164,582)"><use xlink:href="#rect"/></g>
<g transform="translate(1358,582)"><use xlink:href="#t"/></g>
<g transform="translate(1552,582)"><use xlink:href="#t"/></g>
<g transform="translate(1746,582)"><use xlink:href="#rect"/></g>
<g transform="translate(1940,582)"><use xlink:href="#rect"/></g>
<g transform="translate(1067,679)"><use xlink:href="#b"/></g>
<g transform="translate(1261,679)"><use xlink:href="#rect"/></g>
<g transform="translate(1455,679)"><use xlink:href="#rect"/></g>
<g transform="translate(1649,679)"><use xlink:href="#b"/></g>
<g transform="translate(1843,679)"><use xlink:href="#r"/></g>
<g transform="translate(1940,679)"><use xlink:href="#lt"/></g>
<g transform="translate(97,776)"><use xlink:href="#r"/></g>
<g transform="translate(194,776)"><use xlink:href="#rect"/></g>
<g transform="translate(291,776)"><use xlink:href="#l"/></g>
<g transform="translate(485,776)"><use xlink:href="#rb"/></g>
<g transform="translate(582,776)"><use xlink:href="#l"/></g>
<g transform="translate(873,776)"><use xlink:href="#b"/></g>
<g transform="translate(1067,776)"><use xlink:href="#rect"/></g>
<g transform="translate(1649,776)"><use xlink:href="#rt"/></g>
<g transform="translate(1746,776)"><use xlink:href="#lb"/></g>
<g transform="translate(2425,776)"><use xlink:href="#n_rb"/></g>
<g transform="translate(2522,776)"><use xlink:href="#rb"/></g>
<g transform="translate(2619,776)"><use xlink:href="#l"/></g>
<g transform="translate(388,873)"><use xlink:href="#n_rb"/></g>
<g transform="translate(485,873)"><use xlink:href="#rect"/></g>
<g transform="translate(679,873)"><use xlink:href="#rect"/></g>
<g transform="translate(776,873)"><use xlink:href="#n_rb"/></g>
<g transform="translate(873,873)"><use xlink:href="#rect"/></g>
<g transform="translate(1067,873)"><use xlink:href="#t"/></g>
<g transform="translate(1164,873)"><use xlink:href="#n_rb"/></g>
<g transform="translate(1261,873)"><use xlink:href="#rb"/></g>
<g transform="translate(1358,873)"><use xlink:href="#lb"/></g>
<g transform="translate(1455,873)"><use xlink:href="#n_rb"/></g>
<g transform="translate(1552,873)"><use xlink:href="#b"/></g>
<g transform="translate(1649,873)"><use xlink:href="#n_rb"/></g>
<g transform="translate(1746,873)"><use xlink:href="#rect"/></g>
<g transform="translate(1843,873)"><use xlink:href="#l"/></g>
<g transform="translate(2037,873)"><use xlink:href="#r"/></g>
<g transform="translate(2134,873)"><use xlink:href="#rect"/></g>
<g transform="translate(2231,873)"><use xlink:href="#rect"/></g>
<g transform="translate(2328,873)"><use xlink:href="#rect"/></g>
<g transform="translate(2425,873)"><use xlink:href="#rect"/></g>
<g transform="translate(2522,873)"><use xlink:href="#lt"/></g>
<g transform="translate(2716,873)"><use xlink:href="#rect"/></g>
<g transform="translate(0,970)"><use xlink:href="#rb"/></g>
<g transform="translate(97,970)"><use xlink:href="#l"/></g>
<g transform="translate(291,970)"><use xlink:href="#r"/></g>
<g transform="translate(388,970)"><use xlink:href="#rect"/></g>
<g transform="translate(485,970)"><use xlink:href="#rect"/></g>
<g transform="translate(582,970)"><use xlink:href="#l"/></g>
<g transform="translate(776,970)"><use xlink:href="#r"/></g>
<g transform="translate(873,970)"><use xlink:href="#lt"/></g>
<g transform="translate(1164,970)"><use xlink:href="#rb"/></g>
<g transform="translate(1261,970)"><use xlink:href="#rect"/></g>
<g transform="translate(1358,970)"><use xlink:href="#rect"/></g>
<g transform="translate(1455,970)"><use xlink:href="#rect"/></g>
<g transform="translate(1552,970)"><use xlink:href="#rect"/></g>
<g transform="translate(1649,970)"><use xlink:href="#rect"/></g>
<g transform="translate(1746,970)"><use xlink:href="#lt"/></g>
<g transform="translate(1843,970)"><use xlink:href="#n_rb"/></g>
<g transform="translate(1940,970)"><use xlink:href="#b"/></g>
<g transform="translate(2134,970)"><use xlink:href="#rt"/></g>
<g transform="translate(2231,970)"><use xlink:href="#rect"/></g>
<g transform="translate(2328,970)"><use xlink:href="#rect"/></g>
<g transform="translate(2425,970)"><use xlink:href="#lt"/></g>
<g transform="translate(2619,970)"><use xlink:href="#rect"/></g>
<g transform="translate(0,1067)"><use xlink:href="#rect"/></g>
<g transform="translate(388,1067)"><use xlink:href="#rt"/></g>
<g transform="translate(485,1067)"><use xlink:href="#rect"/></g>
<g transform="translate(679,1067)"><use xlink:href="#rect"/></g>
<g transform="translate(970,1067)"><use xlink:href="#b"/></g>
<g transform="translate(1067,1067)"><use xlink:href="#n_rb"/></g>
<g transform="translate(1164,1067)"><use xlink:href="#rect"/></g>
<g transform="translate(1358,1067)"><use xlink:href="#rt"/></g>
<g transform="translate(1455,1067)"><use xlink:href="#rect"/></g>
<g transform="translate(1843,1067)"><use xlink:href="#r"/></g>
<g transform="translate(1940,1067)"><use xlink:href="#lt"/></g>
<g transform="translate(2231,1067)"><use xlink:href="#rect"/></g>
<g transform="translate(2328,1067)"><use xlink:href="#lt"/></g>
<g transform="translate(2619,1067)"><use xlink:href="#n_rb"/></g>
<g transform="translate(2716,1067)"><use xlink:href="#b"/></g>
<g transform="translate(0,1164)"><use xlink:href="#rt"/></g>
<g transform="translate(97,1164)"><use xlink:href="#rect"/></g>
<g transform="translate(194,1164)"><use xlink:href="#rect"/></g>
<g transform="translate(291,1164)"><use xlink:href="#lb"/></g>
<g transform="translate(388,1164)"><use xlink:href="#n_rb"/></g>
<g transform="translate(485,1164)"><use xlink:href="#rect"/></g>
<g transform="translate(582,1164)"><use xlink:href="#l"/></g>
<g transform="translate(873,1164)"><use xlink:href="#n_rb"/></g>
<g transform="translate(970,1164)"><use xlink:href="#rect"/></g>
<g transform="translate(1067,1164)"><use xlink:href="#rect"/></g>
<g transform="translate(1164,1164)"><use xlink:href="#rect"/></g>
<g transform="translate(1261,1164)"><use xlink:href="#l"/></g>
<g transform="translate(1455,1164)"><use xlink:href="#rect"/></g>
<g transform="translate(1552,1164)"><use xlink:href="#rect"/></g>
<g transform="translate(1649,1164)"><use xlink:href="#l"/></g>
<g transform="translate(2037,1164)"><use xlink:href="#rect"/></g>
<g transform="translate(2134,1164)"><use xlink:href="#n_rb"/></g>
<g transform="translate(2231,1164)"><use xlink:href="#rect"/></g>
<g transform="translate(2425,1164)"><use xlink:href="#n_rb"/></g>
<g transform="translate(2522,1164)"><use xlink:href="#rb"/></g>
<g transform="translate(2619,1164)"><use xlink:href="#rect"/></g>
<g transform="translate(2716,1164)"><use xlink:href="#rect"/></g>
<g transform="translate(97,1261)"><use xlink:href="#rt"/></g>
<g transform="translate(194,1261)"><use xlink:href="#rect"/></g>
<g transform="translate(291,1261)"><use xlink:href="#rect"/></g>
<g transform="translate(388,1261)"><use xlink:href="#rect"/></g>
<g transform="translate(485,1261)"><use xlink:href="#lt"/></g>
<g transform="translate(582,1261)"><use xlink:href="#n_rb"/></g>
<g transform="translate(679,1261)"><use xlink:href="#b"/></g>
<g transform="translate(873,1261)"><use xlink:href="#r"/></g>
<g transform="translate(970,1261)"><use xlink:href="#rect"/></g>
<g transform="translate(1067,1261)"><use xlink:href="#rect"/></g>
<g transform="translate(1164,1261)"><use xlink:href="#rect"/></g>
<g transform="translate(1455,1261)"><use xlink:href="#rect"/></g>
<g transform="translate(1843,1261)"><use xlink:href="#b"/></g>
<g transform="translate(2134,1261)"><use xlink:href="#r"/></g>
<g transform="translate(2231,1261)"><use xlink:href="#rect"/></g>
<g transform="translate(2328,1261)"><use xlink:href="#n_rb"/></g>
<g transform="translate(2425,1261)"><use xlink:href="#rb"/></g>
<g transform="translate(2522,1261)"><use xlink:href="#lt"/></g>
<g transform="translate(2716,1261)"><use xlink:href="#rect"/></g>
<g transform="translate(0,1358)"><use xlink:href="#rect"/></g>
<g transform="translate(388,1358)"><use xlink:href="#t"/></g>
<g transform="translate(582,1358)"><use xlink:href="#r"/></g>
<g transform="translate(679,1358)"><use xlink:href="#rect"/></g>
<g transform="translate(970,1358)"><use xlink:href="#t"/></g>
<g transform="translate(1164,1358)"><use xlink:href="#rt"/></g>
<g transform="translate(1261,1358)"><use xlink:href="#lb"/></g>
<g transform="translate(1455,1358)"><use xlink:href="#t"/></g>
<g transform="translate(1746,1358)"><use xlink:href="#n_rb"/></g>
<g transform="translate(1843,1358)"><use xlink:href="#rect"/></g>
<g transform="translate(1940,1358)"><use xlink:href="#n_rb"/></g>
<g transform="translate(2037,1358)"><use xlink:href="#b"/></g>
<g transform="translate(2231,1358)"><use xlink:href="#rt"/></g>
<g transform="translate(2328,1358)"><use xlink:href="#rect"/></g>
<g transform="translate(2425,1358)"><use xlink:href="#rect"/></g>
<g transform="translate(2716,1358)"><use xlink:href="#t"/></g>
<g transform="translate(291,1455)"><use xlink:href="#rect"/></g>
<g transform="translate(679,1455)"><use xlink:href="#rect"/></g>
<g transform="translate(1067,1455)"><use xlink:href="#rect"/></g>
<g transform="translate(1261,1455)"><use xlink:href="#rect"/></g>
<g transform="translate(1746,1455)"><use xlink:href="#rb"/></g>
<g transform="translate(1843,1455)"><use xlink:href="#rect"/></g>
<g transform="translate(1940,1455)"><use xlink:href="#rect"/></g>
<g transform="translate(2037,1455)"><use xlink:href="#rect"/></g>
<g transform="translate(2328,1455)"><use xlink:href="#rect"/></g>
<g transform="translate(2425,1455)"><use xlink:href="#rect"/></g>
<g transform="translate(97,1552)"><use xlink:href="#b"/></g>
<g transform="translate(388,1552)"><use xlink:href="#b"/></g>
<g transform="translate(582,1552)"><use xlink:href="#r"/></g>
<g transform="translate(679,1552)"><use xlink:href="#rect"/></g>
<g transform="translate(776,1552)"><use xlink:href="#rect"/></g>
<g transform="translate(873,1552)"><use xlink:href="#rect"/></g>
<g transform="translate(970,1552)"><use xlink:href="#l"/></g>
<g transform="translate(1261,1552)"><use xlink:href="#rect"/></g>
<g transform="translate(1552,1552)"><use xlink:href="#b"/></g>
<g transform="translate(1746,1552)"><use xlink:href="#rect"/></g>
<g transform="translate(1940,1552)"><use xlink:href="#rect"/></g>
<g transform="translate(2037,1552)"><use xlink:href="#lt"/></g>
<g transform="translate(2231,1552)"><use xlink:href="#rb"/></g>
<g transform="translate(2328,1552)"><use xlink:href="#rect"/></g>
<g transform="translate(2425,1552)"><use xlink:href="#lt"/></g>
<g transform="translate(2619,1552)"><use xlink:href="#rect"/></g>
<g transform="translate(97,1649)"><use xlink:href="#rt"/></g>
<g transform="translate(194,1649)"><use xlink:href="#lb"/></g>
<g transform="translate(291,1649)"><use xlink:href="#n_rb"/></g>
<g transform="translate(388,1649)"><use xlink:href="#rect"/></g>
<g transform="translate(485,1649)"><use xlink:href="#lb"/></g>
<g transform="translate(582,1649)"><use xlink:href="#n_rb"/></g>
<g transform="translate(679,1649)"><use xlink:href="#rect"/></g>
<g transform="translate(776,1649)"><use xlink:href="#rect"/></g>
<g transform="translate(873,1649)"><use xlink:href="#rect"/></g>
<g transform="translate(970,1649)"><use xlink:href="#n_rb"/></g>
<g transform="translate(1067,1649)"><use xlink:href="#b"/></g>
<g transform="translate(1261,1649)"><use xlink:href="#t"/></g>
<g transform="translate(1455,1649)"><use xlink:href="#n_rb"/></g>
<g transform="translate(1552,1649)"><use xlink:href="#rect"/></g>
<g transform="translate(1649,1649)"><use xlink:href="#n_rb"/></g>
<g transform="translate(1746,1649)"><use xlink:href="#rect"/></g>
<g transform="translate(1940,1649)"><use xlink:href="#rect"/></g>
<g transform="translate(2134,1649)"><use xlink:href="#n_rb"/></g>
<g transform="translate(2231,1649)"><use xlink:href="#rect"/></g>
<g transform="translate(0,1746)"><use xlink:href="#rect"/></g>
<g transform="translate(194,1746)"><use xlink:href="#rect"/></g>
<g transform="translate(291,1746)"><use xlink:href="#rect"/></g>
<g transform="translate(388,1746)"><use xlink:href="#rect"/></g>
<g transform="translate(485,1746)"><use xlink:href="#rect"/></g>
<g transform="translate(582,1746)"><use xlink:href="#rect"/></g>
<g transform="translate(679,1746)"><use xlink:href="#rect"/></g>
<g transform="translate(776,1746)"><use xlink:href="#rect"/></g>
<g transform="translate(873,1746)"><use xlink:href="#rect"/></g>
<g transform="translate(970,1746)"><use xlink:href="#rect"/></g>
<g transform="translate(1067,1746)"><use xlink:href="#rect"/></g>
<g transform="translate(1164,1746)"><use xlink:href="#l"/></g>
<g transform="translate(1358,1746)"><use xlink:href="#r"/></g>
<g transform="translate(1455,1746)"><use xlink:href="#rect"/></g>
<g transform="translate(1552,1746)"><use xlink:href="#rect"/></g>
<g transform="translate(1649,1746)"><use xlink:href="#rect"/></g>
<g transform="translate(1746,1746)"><use xlink:href="#lt"/></g>
<g transform="translate(1940,1746)"><use xlink:href="#rect"/></g>
<g transform="translate(2037,1746)"><use xlink:href="#n_rb"/></g>
<g transform="translate(2134,1746)"><use xlink:href="#rb"/></g>
<g transform="translate(2231,1746)"><use xlink:href="#lt"/></g>
<g transform="translate(194,1843)"><use xlink:href="#rt"/></g>
<g transform="translate(291,1843)"><use xlink:href="#rect"/></g>
<g transform="translate(388,1843)"><use xlink:href="#lt"/></g>
<g transform="translate(776,1843)"><use xlink:href="#rect"/></g>
<g transform="translate(873,1843)"><use xlink:href="#rect"/></g>
<g transform="translate(970,1843)"><use xlink:href="#rect"/></g>
<g transform="translate(1067,1843)"><use xlink:href="#rect"/></g>
<g transform="translate(1649,1843)"><use xlink:href="#rect"/></g>
<g transform="translate(1843,1843)"><use xlink:href="#n_rb"/></g>
<g transform="translate(1940,1843)"><use xlink:href="#rect"/></g>
<g transform="translate(2037,1843)"><use xlink:href="#rect"/></g>
<g transform="translate(2134,1843)"><use xlink:href="#rect"/></g>
<g transform="translate(2328,1843)"><use xlink:href="#n_rb"/></g>
<g transform="translate(2425,1843)"><use xlink:href="#rb"/></g>
<g transform="translate(2522,1843)"><use xlink:href="#lb"/></g>
<g transform="translate(2716,1843)"><use xlink:href="#rect"/></g>
<g transform="translate(97,1940)"><use xlink:href="#rect"/></g>
<g transform="translate(485,1940)"><use xlink:href="#r"/></g>
<g transform="translate(582,1940)"><use xlink:href="#l"/></g>
<g transform="translate(776,1940)"><use xlink:href="#rect"/></g>
<g transform="translate(1067,1940)"><use xlink:href="#rt"/></g>
<g transform="translate(1164,1940)"><use xlink:href="#lb"/></g>
<g transform="translate(1649,1940)"><use xlink:href="#rt"/></g>
<g transform="translate(1746,1940)"><use xlink:href="#rect"/></g>
<g transform="translate(1843,1940)"><use xlink:href="#rect"/></g>
<g transform="translate(1940,1940)"><use xlink:href="#rect"/></g>
<g transform="translate(2037,1940)"><use xlink:href="#rect"/></g>
<g transform="translate(2134,1940)"><use xlink:href="#rect"/></g>
<g transform="translate(2231,1940)"><use xlink:href="#rect"/></g>
<g transform="translate(2328,1940)"><use xlink:href="#rect"/></g>
<g transform="translate(2425,1940)"><use xlink:href="#rect"/></g>
<g transform="translate(2522,1940)"><use xlink:href="#rect"/></g>
<g transform="translate(2619,1940)"><use xlink:href="#l"/></g>
<g transform="translate(776,2037)"><use xlink:href="#rt"/></g>
<g transform="translate(873,2037)"><use xlink:href="#rect"/></g>
<g transform="translate(970,2037)"><use xlink:href="#lb"/></g>
<g transform="translate(1164,2037)"><use xlink:href="#t"/></g>
<g transform="translate(1261,2037)"><use xlink:href="#n_rb"/></g>
<g transform="translate(1358,2037)"><use xlink:href="#b"/></g>
<g transform="translate(1552,2037)"><use xlink:href="#rect"/></g>
<g transform="translate(1746,2037)"><use xlink:href="#rt"/></g>
<g transform="translate(1843,2037)"><use xlink:href="#rect"/></g>
<g transform="translate(1940,2037)"><use xlink:href="#rect"/></g>
<g transform="translate(2328,2037)"><use xlink:href="#rect"/></g>
<g transform="translate(2425,2037)"><use xlink:href="#lt"/></g>
<g transform="translate(2716,2037)"><use xlink:href="#rect"/></g>
<g transform="translate(970,2134)"><use xlink:href="#t"/></g>
<g transform="translate(1261,2134)"><use xlink:href="#r"/></g>
<g transform="translate(1358,2134)"><use xlink:href="#rect"/></g>
<g transform="translate(1649,2134)"><use xlink:href="#rect"/></g>
<g transform="translate(1843,2134)"><use xlink:href="#rt"/></g>
<g transform="translate(1940,2134)"><use xlink:href="#rect"/></g>
<g transform="translate(2134,2134)"><use xlink:href="#rect"/></g>
<g transform="translate(2328,2134)"><use xlink:href="#rect"/></g>
<g transform="translate(2522,2134)"><use xlink:href="#r"/></g>
<g transform="translate(2619,2134)"><use xlink:href="#l"/></g>
<g transform="translate(776,2231)"><use xlink:href="#rect"/></g>
<g transform="translate(1358,2231)"><use xlink:href="#rect"/></g>
<g transform="translate(1455,2231)"><use xlink:href="#l"/></g>
<g transform="translate(1940,2231)"><use xlink:href="#rect"/></g>
<g transform="translate(2231,2231)"><use xlink:href="#n_rb"/></g>
<g transform="translate(2328,2231)"><use xlink:href="#rect"/></g>
<g transform="translate(970,2328)"><use xlink:href="#rect"/></g>
<g transform="translate(1261,2328)"><use xlink:href="#r"/></g>
<g transform="translate(1358,2328)"><use xlink:href="#rect"/></g>
<g transform="translate(1746,2328)"><use xlink:href="#rect"/></g>
<g transform="translate(1940,2328)"><use xlink:href="#rt"/></g>
<g transform="translate(2037,2328)"><use xlink:href="#rect"/></g>
<g transform="translate(2134,2328)"><use xlink:href="#rect"/></g>
<g transform="translate(2231,2328)"><use xlink:href="#rect"/></g>
<g transform="translate(2328,2328)"><use xlink:href="#rect"/></g>
<g transform="translate(2425,2328)"><use xlink:href="#rect"/></g>
<g transform="translate(2522,2328)"><use xlink:href="#rect"/></g>
<g transform="translate(2619,2328)"><use xlink:href="#lb"/></g>
<g transform="translate(776,2425)"><use xlink:href="#b"/></g>
<g transform="translate(1067,2425)"><use xlink:href="#r"/></g>
<g transform="translate(1164,2425)"><use xlink:href="#l"/></g>
<g transform="translate(1358,2425)"><use xlink:href="#t"/></g>
<g transform="translate(1455,2425)"><use xlink:href="#n_rb"/></g>
<g transform="translate(1552,2425)"><use xlink:href="#rb"/></g>
<g transform="translate(1649,2425)"><use xlink:href="#l"/></g>
<g transform="translate(1843,2425)"><use xlink:href="#rect"/></g>
<g transform="translate(2328,2425)"><use xlink:href="#rt"/></g>
<g transform="translate(2425,2425)"><use xlink:href="#lt"/></g>
<g transform="translate(2619,2425)"><use xlink:href="#t"/></g>
<g transform="translate(776,2522)"><use xlink:href="#rect"/></g>
<g transform="translate(873,2522)"><use xlink:href="#rect"/></g>
<g transform="translate(970,2522)"><use xlink:href="#lb"/></g>
<g transform="translate(1261,2522)"><use xlink:href="#rect"/></g>
<g transform="translate(1455,2522)"><use xlink:href="#r"/></g>
<g transform="translate(1552,2522)"><use xlink:href="#rect"/></g>
<g transform="translate(1940,2522)"><use xlink:href="#b"/></g>
<g transform="translate(2231,2522)"><use xlink:href="#rect"/></g>
<g transform="translate(2522,2522)"><use xlink:href="#rect"/></g>
<g transform="translate(2716,2522)"><use xlink:href="#rect"/></g>
<g transform="translate(776,2619)"><use xlink:href="#rt"/></g>
<g transform="translate(873,2619)"><use xlink:href="#rect"/></g>
<g transform="translate(970,2619)"><use xlink:href="#lt"/></g>
<g transform="translate(1261,2619)"><use xlink:href="#n_rb"/></g>
<g transform="translate(1358,2619)"><use xlink:href="#b"/></g>
<g transform="translate(1552,2619)"><use xlink:href="#t"/></g>
<g transform="translate(1843,2619)"><use xlink:href="#n_rb"/></g>
<g transform="translate(1940,2619)"><use xlink:href="#rect"/></g>
<g transform="translate(2037,2619)"><use xlink:href="#n_rb"/></g>
<g transform="translate(2134,2619)"><use xlink:href="#b"/></g>
<g transform="translate(2328,2619)"><use xlink:href="#r"/></g>
<g transform="translate(2425,2619)"><use xlink:href="#lb"/></g>
<g transform="translate(2619,2619)"><use xlink:href="#b"/></g>
<g transform="translate(1067,2716)"><use xlink:href="#r"/></g>
<g transform="translate(1164,2716)"><use xlink:href="#rect"/></g>
<g transform="translate(1261,2716)"><use xlink:href="#rect"/></g>
<g transform="translate(1358,2716)"><use xlink:href="#rect"/></g>
<g transform="translate(1455,2716)"><use xlink:href="#l"/></g>
<g transform="translate(1843,2716)"><use xlink:href="#r"/></g>
<g transform="translate(1940,2716)"><use xlink:href="#rect"/></g>
<g transform="translate(2037,2716)"><use xlink:href="#rect"/></g>
<g transform="translate(2134,2716)"><use xlink:href="#rect"/></g>
<g transform="translate(2231,2716)"><use xlink:href="#l"/></g>
<g transform="translate(2425,2716)"><use xlink:href="#t"/></g>
<g transform="translate(2619,2716)"><use xlink:href="#t"/></g>
<use fill-rule="evenodd" transform="translate(0,0)" xlink:href="#point"/>
<use fill-rule="evenodd" transform="translate(2112,0)" xlink:href="#point"/>
<use fill-rule="evenodd" transform="translate(0,2112)" xlink:href="#point"/>
        </g>
      </svg>