<?xml version="1.0" encoding="UTF-8"?>
<svg width="183px" height="24px" viewBox="0 0 183 24" version="1.1" xmlns="http://www.w3.org/2000/svg" xmlns:xlink="http://www.w3.org/1999/xlink">
    <!-- Generator: Sketch 55 (78076) - https://sketchapp.com -->
    <title>features</title>
    <desc>Created with Sketch.</desc>
    <g id="Page-1" stroke="none" stroke-width="1" fill="none" fill-rule="evenodd">
        <g id="features">
            <path d="M13,11 L17,11 C17.552,11 18,11.448 18,12 C18,12.552 17.552,13 17,13 L13,13 L13,17 C13,17.552 12.552,18 12,18 C11.448,18 11,17.552 11,17 L11,13 L7,13 C6.448,13 6,12.552 6,12 C6,11.448 6.448,11 7,11 L11,11 L11,7 C11,6.448 11.448,6 12,6 C12.552,6 13,6.448 13,7 L13,11 Z M12,24 C5.373,24 0,18.627 0,12 C0,5.373 5.373,0 12,0 C18.627,0 24,5.373 24,12 C24,18.627 18.627,24 12,24 Z M12,22 C17.523,22 22,17.523 22,12 C22,6.477 17.523,2 12,2 C6.477,2 2,6.477 2,12 C2,17.523 6.477,22 12,22 Z M57.472,15.922 C57.408,16.949 57.236,17.45 56.966,17.954 C56.617,18.606 56.106,19.117 55.454,19.466 C54.802,19.815 54.156,20 52.373,20 L44.629,20 C42.846,20 42.199,19.814 41.548,19.466 C40.897,19.118 40.385,18.606 40.036,17.954 C39.687,17.302 39.502,16.656 39.502,14.873 L39.502,9.129 C39.502,7.346 39.688,6.699 40.036,6.048 C40.385,5.396 40.896,4.885 41.548,4.536 C42.2,4.187 42.846,4.002 44.629,4.002 L52.373,4.002 C54.156,4.002 54.803,4.188 55.454,4.536 C56.106,4.885 56.617,5.396 56.966,6.048 C57.236,6.552 57.408,7.053 57.472,8.08 L60.173,6.189 C61.417,5.318 63.132,5.621 64.003,6.865 C64.327,7.327 64.5,7.878 64.5,8.442 L64.5,15.561 C64.5,17.08 63.269,18.311 61.75,18.311 C61.186,18.311 60.635,18.137 60.173,17.814 L57.472,15.922 Z M55.5,15.437 L55.5,8.565 C55.5,7.673 55.407,7.35 55.233,7.024 C55.059,6.698 54.803,6.442 54.477,6.268 C54.151,6.094 53.828,6.001 52.936,6.001 L44.064,6.001 C43.172,6.001 42.849,6.094 42.523,6.268 C42.197,6.442 41.941,6.698 41.767,7.024 C41.593,7.35 41.5,7.673 41.5,8.565 L41.5,15.437 C41.5,16.329 41.593,16.652 41.767,16.978 C41.941,17.304 42.197,17.56 42.523,17.734 C42.849,17.908 43.172,18.001 44.064,18.001 L52.936,18.001 C53.828,18.001 54.151,17.908 54.477,17.734 C54.803,17.56 55.059,17.304 55.233,16.978 C55.407,16.652 55.5,16.329 55.5,15.437 Z M62.5,8.441 C62.5,8.287 62.453,8.137 62.364,8.011 C62.126,7.672 61.659,7.589 61.319,7.827 L57.712,10.352 C57.578,10.446 57.499,10.598 57.499,10.762 L57.499,13.241 C57.499,13.404 57.579,13.557 57.712,13.651 L61.319,16.176 C61.445,16.264 61.595,16.312 61.749,16.312 C62.163,16.312 62.499,15.976 62.499,15.562 L62.5,8.441 Z M97.009,2.085 L97.814,3.081 C97.992,3.301 98.503,3.501 99,3.501 L99.5,3.501 C102.143,3.501 104,5.544 104,8.503 L103.979,16.999 C103.979,19.647 101.431,21.999 98.479,21.999 L85.479,21.999 C82.527,21.999 79.979,19.647 79.979,16.997 L80,8.501 C80,5.544 81.857,3.501 84.5,3.501 L85,3.501 C85.497,3.501 86.008,3.301 86.186,3.081 L86.991,2.085 C87.63,1.335 88.36,1 89.392,1 L94.608,1 C95.64,1 96.37,1.334 97.009,2.085 Z M89.392,3 C88.944,3 88.771,3.079 88.514,3.381 L87.74,4.339 C87.144,5.074 86.057,5.5 85,5.5 L84.5,5.5 C83.006,5.5 82,6.607 82,8.502 L81.979,16.998 C81.979,18.504 83.598,19.998 85.479,19.998 L98.479,19.998 C100.36,19.998 101.979,18.504 101.979,16.996 L102,8.5 C102,6.607 100.994,5.5 99.5,5.5 L99,5.5 C97.944,5.5 96.856,5.074 96.26,4.339 L95.486,3.381 C95.229,3.079 95.056,3 94.608,3 L89.392,3 Z M86.75,12.25 C86.75,9.35 89.1,7 92,7 C94.9,7 97.25,9.35 97.25,12.25 C97.25,15.15 94.9,17.5 92,17.5 C89.1,17.5 86.75,15.15 86.75,12.25 Z M88.75,12.25 C88.75,14.045 90.205,15.5 92,15.5 C93.795,15.5 95.25,14.045 95.25,12.25 C95.25,10.455 93.795,9 92,9 C90.205,9 88.75,10.455 88.75,12.25 Z M166.45,10 L166.45,7.43 L166.449,7.093 L166.448,5.804 L166.45,5.329 C166.46,3.616 167.978,2.308 170.201,1.88 C174.884,0.863 177.433,0.315 177.886,0.225 C178.701,0.065 179.428,0.029 180.187,0.258 C181.449,0.639 182.217,1.695 182.217,3.317 L182.217,14.123 L182.216,14.198 L182.216,14.215 C182.216,18.327 180.864,20.58 177.716,21.151 C175.403,21.57 172.949,19.777 173.227,17.144 C173.521,14.355 175.727,13.246 180.217,12.428 L180.217,6.334 L168.723,8.908 L168.45,8.969 L168.45,13.539 L168.447,13.539 L168.447,16.955 L168.446,17.03 L168.446,17.047 C168.446,21.159 167.094,23.412 163.946,23.983 C161.633,24.402 159.179,22.609 159.457,19.976 C159.751,17.187 161.957,16.078 166.447,15.26 L166.447,9.999 L166.45,10 Z M161.446,20.187 C161.322,21.365 162.487,22.216 163.59,22.016 C165.582,21.655 166.404,20.363 166.445,17.296 C163.093,17.941 161.599,18.736 161.446,20.186 L161.446,20.187 Z M175.215,17.355 C175.091,18.533 176.256,19.384 177.359,19.184 C179.351,18.823 180.173,17.531 180.214,14.464 C176.862,15.109 175.368,15.904 175.215,17.354 L175.215,17.355 Z M180.216,4.286 L168.447,6.922 L168.447,5.81 L168.449,5.342 C168.453,4.749 169.191,4.112 170.601,3.841 C175.275,2.826 177.838,2.274 178.272,2.189 C178.789,2.087 179.245,2.064 179.608,2.174 C180.018,2.298 180.216,2.571 180.216,3.319 L180.216,4.286 Z M132,20 C124.8,20 120,13.6 120,12 C120,10.4 124.8,4 132,4 C139.2,4 144,10.4 144,12 C144,13.6 139.2,20 132,20 Z M132,17.5 C135.313708,17.5 138,15.0375661 138,12 C138,8.96243388 135.313708,6.5 132,6.5 C128.686292,6.5 126,8.96243388 126,12 C126,15.0375661 128.686292,17.5 132,17.5 Z" id="Shape" fill="#000000" fill-rule="nonzero"></path>
            <path d="M144,2.5 L121.5,21.5" id="Line" stroke="#000000" stroke-width="3" stroke-linecap="round"></path>
        </g>
    </g>
</svg>