<svg height="56" viewBox="0 0 65 56" width="65" xmlns="http://www.w3.org/2000/svg"><linearGradient id="a" x1="100%" x2="0%" y1="100%" y2="0%"><stop offset="0" stop-color="#6cacf5"/><stop offset="1" stop-color="#0069e0"/></linearGradient><path d="M65 28c0 15.397-12.239 28-27.75 28-19.114 0-27.755-20.938-37.25-28 9.496-7.032 18.137-28 37.25-28 15.511.03 27.75 12.634 27.75 28z" fill="url(#a)"/><path d="M37.406 32.87c-2.371 0-4.292-1.908-4.292-4.261s1.922-4.261 4.292-4.261c2.371 0 4.292 1.908 4.292 4.261s-1.922 4.261-4.292 4.261zm-12.264 0c-2.371 0-4.292-1.908-4.292-4.261s1.922-4.261 4.292-4.261c2.371 0 4.292 1.908 4.292 4.261s-1.922 4.261-4.292 4.261zm24.528 0c-2.371 0-4.292-1.908-4.292-4.261s1.922-4.261 4.292-4.261c2.371 0 4.292 1.908 4.292 4.261s-1.922 4.261-4.292 4.261z" fill="#fff"/></svg>