<?xml version="1.0" encoding="UTF-8"?>
<svg width="109px" height="19px" viewBox="0 0 109 19" version="1.1" xmlns="http://www.w3.org/2000/svg" xmlns:xlink="http://www.w3.org/1999/xlink">
    <!-- Generator: Sketch 55 (78076) - https://sketchapp.com -->
    <title>logo-mobile</title>
    <desc>Created with Sketch.</desc>
    <g id="Page-1" stroke="none" stroke-width="1" fill="none" fill-rule="evenodd">
        <g id="logo-mobile" fill="#222222" fill-rule="nonzero">
            <path d="M15.795,0.99 L9.99,18 L5.94,18 L0.135,0.99 L4.185,0.99 L7.965,12.735 L11.745,0.99 L15.795,0.99 Z M26.352,18 L20.817,10.44 L20.817,18 L16.902,18 L16.902,0.99 L20.817,0.99 L20.817,8.28 L25.947,0.99 L30.402,0.99 L24.408,9.36 L30.807,18 L26.352,18 Z M44.631,14.355 C45.7110054,14.355 46.5614969,14.0985026 47.1825,13.5855 C47.8035031,13.0724974 48.212999,12.4740034 48.411,11.79 L52.461,12.06 C52.262999,12.8700041 51.9390022,13.6439963 51.489,14.382 C51.0389978,15.1200037 50.4810033,15.7634973 49.815,16.3125 C49.1489967,16.8615027 48.3795044,17.3024983 47.5065,17.6355 C46.6334956,17.9685017 45.6750052,18.135 44.631,18.135 C43.4789942,18.135 42.3945051,17.9145022 41.3775,17.4735 C40.3604949,17.0324978 39.4740038,16.4205039 38.718,15.6375 C37.9619962,14.8544961 37.3635022,13.9410052 36.9225,12.897 C36.4814978,11.8529948 36.261,10.7190061 36.261,9.495 C36.261,8.28899397 36.4814978,7.15950527 36.9225,6.1065 C37.3635022,5.05349474 37.9619962,4.13550392 38.718,3.3525 C39.4740038,2.56949609 40.3604949,1.95750221 41.3775,1.5165 C42.3945051,1.0754978 43.4789942,0.855 44.631,0.855 C45.639005,0.855 46.5704957,1.02149834 47.4255,1.3545 C48.2805043,1.68750167 49.0364967,2.12849726 49.6935,2.6775 C50.3505033,3.22650275 50.9039977,3.86999631 51.354,4.608 C51.8040022,5.34600369 52.127999,6.11999595 52.326,6.93 L48.276,7.2 C48.1679995,6.85799829 48.015001,6.53400153 47.817,6.228 C47.618999,5.92199847 47.3670015,5.65200117 47.061,5.418 C46.7549985,5.18399883 46.399502,4.99500072 45.9945,4.851 C45.589498,4.70699928 45.1350025,4.635 44.631,4.635 C44.0189969,4.635 43.4430027,4.75649879 42.903,4.9995 C42.3629973,5.24250122 41.890502,5.57999784 41.4855,6.012 C41.080498,6.44400216 40.7610012,6.95699703 40.527,7.551 C40.2929988,8.14500297 40.176,8.79299649 40.176,9.495 C40.176,10.1970035 40.2929988,10.844997 40.527,11.439 C40.7610012,12.033003 41.080498,12.5459978 41.4855,12.978 C41.890502,13.4100022 42.3629973,13.7474988 42.903,13.9905 C43.4430027,14.2335012 44.0189969,14.355 44.631,14.355 Z M52.893,11.79 C52.893,10.8719954 53.0594983,10.0215039 53.3925,9.2385 C53.7255017,8.45549609 54.1799971,7.77150293 54.756,7.1865 C55.3320029,6.60149708 56.0024962,6.14250167 56.7675,5.8095 C57.5325038,5.47649834 58.3559956,5.31 59.238,5.31 C60.1200044,5.31 60.9434962,5.47649834 61.7085,5.8095 C62.4735038,6.14250167 63.1439971,6.60149708 63.72,7.1865 C64.2960029,7.77150293 64.7504983,8.45549609 65.0835,9.2385 C65.4165017,10.0215039 65.583,10.8719954 65.583,11.79 C65.583,12.7080046 65.4165017,13.5584961 65.0835,14.3415 C64.7504983,15.1245039 64.2960029,15.8084971 63.72,16.3935 C63.1439971,16.9785029 62.4735038,17.4374983 61.7085,17.7705 C60.9434962,18.1035017 60.1200044,18.27 59.238,18.27 C58.3559956,18.27 57.5325038,18.1035017 56.7675,17.7705 C56.0024962,17.4374983 55.3320029,16.9785029 54.756,16.3935 C54.1799971,15.8084971 53.7255017,15.1245039 53.3925,14.3415 C53.0594983,13.5584961 52.893,12.7080046 52.893,11.79 Z M61.938,11.79 C61.938,10.8359952 61.6770026,10.0800028 61.155,9.522 C60.6329974,8.96399721 59.9940038,8.685 59.238,8.685 C58.4819962,8.685 57.8430026,8.96399721 57.321,9.522 C56.7989974,10.0800028 56.538,10.8359952 56.538,11.79 C56.538,12.7440048 56.7989974,13.4999972 57.321,14.058 C57.8430026,14.6160028 58.4819962,14.895 59.238,14.895 C59.9940038,14.895 60.6329974,14.6160028 61.155,14.058 C61.6770026,13.4999972 61.938,12.7440048 61.938,11.79 Z M81.54,9.495 L78.975,9.495 L78.975,18 L75.33,18 L75.33,9.495 L71.55,9.495 L71.55,18 L67.905,18 L67.905,9.495 L66.285,9.495 L66.285,6.12 L67.905,6.12 C67.905,4.55399217 68.2919961,3.37500396 69.066,2.583 C69.8400039,1.79099604 70.9379929,1.395 72.36,1.395 C72.6120013,1.395 72.8459989,1.40849987 73.062,1.4355 C73.2780011,1.46250014 73.4669992,1.49399982 73.629,1.53 C73.8090009,1.58400027 73.9709993,1.62899982 74.115,1.665 L74.115,4.905 L73.845,4.851 C73.7549996,4.83299991 73.6560005,4.81500009 73.548,4.797 C73.4399995,4.77899991 73.3140007,4.77 73.17,4.77 C72.8279983,4.77 72.553501,4.84199928 72.3465,4.986 C72.139499,5.13000072 71.9730006,5.28299919 71.847,5.445 C71.7029993,5.64300099 71.6040003,5.86799874 71.55,6.12 L75.33,6.12 L75.33,5.445 C75.33,3.95099253 75.7169961,2.81250392 76.491,2.0295 C77.2650039,1.24649609 78.3629929,0.855 79.785,0.855 C80.0370013,0.855 80.2709989,0.868499865 80.487,0.8955 C80.7030011,0.922500135 80.8919992,0.95399982 81.054,0.99 C81.2340009,1.04400027 81.3959993,1.08899982 81.54,1.125 L81.54,4.365 L81.27,4.311 C81.1799995,4.29299991 81.0810005,4.27500009 80.973,4.257 C80.8649995,4.23899991 80.7390007,4.23 80.595,4.23 C80.1269977,4.23 79.7400015,4.38749843 79.434,4.7025 C79.1279985,5.01750158 78.975,5.4449973 78.975,5.985 L78.975,6.12 L81.54,6.12 L81.54,9.495 Z M94.392,14.355 C94.2299992,14.8590025 93.9870016,15.3449977 93.663,15.813 C93.3389984,16.2810023 92.9340024,16.6994982 92.448,17.0685 C91.9619976,17.4375018 91.3995032,17.7299989 90.7605,17.946 C90.1214968,18.1620011 89.3970041,18.27 88.587,18.27 C87.7409958,18.27 86.9445037,18.1035017 86.1975,17.7705 C85.4504963,17.4374983 84.7935028,16.9785029 84.2265,16.3935 C83.6594972,15.8084971 83.2095017,15.1245039 82.8765,14.3415 C82.5434983,13.5584961 82.377,12.7080046 82.377,11.79 C82.377,10.8719954 82.5434983,10.0215039 82.8765,9.2385 C83.2095017,8.45549609 83.6639971,7.77150293 84.24,7.1865 C84.8160029,6.60149708 85.4864962,6.14250167 86.2515,5.8095 C87.0165038,5.47649834 87.8399956,5.31 88.722,5.31 C89.5680042,5.31 90.3599963,5.46299847 91.098,5.769 C91.8360037,6.07500153 92.4794973,6.51149717 93.0285,7.0785 C93.5775027,7.64550284 94.0094984,8.329496 94.3245,9.1305 C94.6395016,9.93150401 94.797,10.8179951 94.797,11.79 C94.797,11.9340007 94.7880001,12.0734993 94.77,12.2085 C94.7519999,12.3435007 94.7340001,12.4739994 94.716,12.6 C94.6979999,12.7440007 94.6800001,12.8789994 94.662,13.005 L86.157,13.005 C86.3010007,13.4730023 86.5934978,13.904998 87.0345,14.301 C87.4755022,14.697002 88.0379966,14.895 88.722,14.895 C89.0640017,14.895 89.3564988,14.8545004 89.5995,14.7735 C89.8425012,14.6924996 90.0359993,14.5980005 90.18,14.49 C90.3600009,14.3819995 90.5039995,14.2470008 90.612,14.085 L94.392,14.355 Z M88.722,8.685 C88.0379966,8.685 87.4755022,8.88749798 87.0345,9.2925 C86.5934978,9.69750203 86.3010007,10.1699973 86.157,10.71 L91.287,10.71 C91.1429993,10.1699973 90.8505022,9.69750203 90.4095,9.2925 C89.9684978,8.88749798 89.4060034,8.685 88.722,8.685 Z M107.649,14.355 C107.486999,14.8590025 107.244002,15.3449977 106.92,15.813 C106.595998,16.2810023 106.191002,16.6994982 105.705,17.0685 C105.218998,17.4375018 104.656503,17.7299989 104.0175,17.946 C103.378497,18.1620011 102.654004,18.27 101.844,18.27 C100.997996,18.27 100.201504,18.1035017 99.4545,17.7705 C98.7074963,17.4374983 98.0505028,16.9785029 97.4835,16.3935 C96.9164972,15.8084971 96.4665017,15.1245039 96.1335,14.3415 C95.8004983,13.5584961 95.634,12.7080046 95.634,11.79 C95.634,10.8719954 95.8004983,10.0215039 96.1335,9.2385 C96.4665017,8.45549609 96.9209971,7.77150293 97.497,7.1865 C98.0730029,6.60149708 98.7434962,6.14250167 99.5085,5.8095 C100.273504,5.47649834 101.096996,5.31 101.979,5.31 C102.825004,5.31 103.616996,5.46299847 104.355,5.769 C105.093004,6.07500153 105.736497,6.51149717 106.2855,7.0785 C106.834503,7.64550284 107.266498,8.329496 107.5815,9.1305 C107.896502,9.93150401 108.054,10.8179951 108.054,11.79 C108.054,11.9340007 108.045,12.0734993 108.027,12.2085 C108.009,12.3435007 107.991,12.4739994 107.973,12.6 C107.955,12.7440007 107.937,12.8789994 107.919,13.005 L99.414,13.005 C99.5580007,13.4730023 99.8504978,13.904998 100.2915,14.301 C100.732502,14.697002 101.294997,14.895 101.979,14.895 C102.321002,14.895 102.613499,14.8545004 102.8565,14.7735 C103.099501,14.6924996 103.292999,14.5980005 103.437,14.49 C103.617001,14.3819995 103.760999,14.2470008 103.869,14.085 L107.649,14.355 Z M101.979,8.685 C101.294997,8.685 100.732502,8.88749798 100.2915,9.2925 C99.8504978,9.69750203 99.5580007,10.1699973 99.414,10.71 L104.544,10.71 C104.399999,10.1699973 104.107502,9.69750203 103.6665,9.2925 C103.225498,8.88749798 102.663003,8.685 101.979,8.685 Z" id="VKCofee"></path>
        </g>
    </g>
</svg>