<?xml version="1.0" encoding="UTF-8"?>
<svg width="145px" height="24px" viewBox="0 0 145 24" version="1.1" xmlns="http://www.w3.org/2000/svg" xmlns:xlink="http://www.w3.org/1999/xlink">
    <!-- Generator: Sketch 55 (78076) - https://sketchapp.com -->
    <title>logo-text</title>
    <desc>Created with Sketch.</desc>
    <g id="Page-1" stroke="none" stroke-width="1" fill="none" fill-rule="evenodd">
        <g id="logo-text" transform="translate(0.000000, -2.000000)" fill="#222222" fill-rule="nonzero">
            <path d="M21.06,2.32 L13.32,25 L7.92,25 L0.18,2.32 L5.58,2.32 L10.62,17.98 L15.66,2.32 L21.06,2.32 Z M35.136,25 L27.756,14.92 L27.756,25 L22.536,25 L22.536,2.32 L27.756,2.32 L27.756,12.04 L34.596,2.32 L40.536,2.32 L32.544,13.48 L41.076,25 L35.136,25 Z M59.508,20.14 C60.9480072,20.14 62.0819959,19.7980034 62.91,19.114 C63.7380041,18.4299966 64.2839987,17.6320046 64.548,16.72 L69.948,17.08 C69.6839987,18.1600054 69.252003,19.1919951 68.652,20.176 C68.051997,21.1600049 67.3080044,22.0179963 66.42,22.75 C65.5319956,23.4820037 64.5060058,24.0699978 63.342,24.514 C62.1779942,24.9580022 60.900007,25.18 59.508,25.18 C57.9719923,25.18 56.5260068,24.8860029 55.17,24.298 C53.8139932,23.7099971 52.632005,22.8940052 51.624,21.85 C50.615995,20.8059948 49.8180029,19.588007 49.23,18.196 C48.6419971,16.803993 48.348,15.2920082 48.348,13.66 C48.348,12.051992 48.6419971,10.546007 49.23,9.142 C49.8180029,7.73799298 50.615995,6.51400522 51.624,5.47 C52.632005,4.42599478 53.8139932,3.61000294 55.17,3.022 C56.5260068,2.43399706 57.9719923,2.14 59.508,2.14 C60.8520067,2.14 62.0939943,2.36199778 63.234,2.806 C64.3740057,3.25000222 65.3819956,3.83799634 66.258,4.57 C67.1340044,5.30200366 67.871997,6.15999508 68.472,7.144 C69.072003,8.12800492 69.5039987,9.1599946 69.768,10.24 L64.368,10.6 C64.2239993,10.1439977 64.0200013,9.71200204 63.756,9.304 C63.4919987,8.89599796 63.156002,8.53600156 62.748,8.224 C62.339998,7.91199844 61.8660027,7.66000096 61.326,7.468 C60.7859973,7.27599904 60.1800034,7.18 59.508,7.18 C58.6919959,7.18 57.9240036,7.34199838 57.204,7.666 C56.4839964,7.99000162 55.8540027,8.43999712 55.314,9.016 C54.7739973,9.59200288 54.3480016,10.275996 54.036,11.068 C53.7239984,11.860004 53.568,12.7239953 53.568,13.66 C53.568,14.5960047 53.7239984,15.459996 54.036,16.252 C54.3480016,17.044004 54.7739973,17.7279971 55.314,18.304 C55.8540027,18.8800029 56.4839964,19.3299984 57.204,19.654 C57.9240036,19.9780016 58.6919959,20.14 59.508,20.14 Z M70.524,16.72 C70.524,15.4959939 70.7459978,14.3620052 71.19,13.318 C71.6340022,12.2739948 72.2399962,11.3620039 73.008,10.582 C73.7760038,9.8019961 74.6699949,9.19000222 75.69,8.746 C76.7100051,8.30199778 77.8079941,8.08 78.984,8.08 C80.1600059,8.08 81.2579949,8.30199778 82.278,8.746 C83.2980051,9.19000222 84.1919962,9.8019961 84.96,10.582 C85.7280038,11.3620039 86.3339978,12.2739948 86.778,13.318 C87.2220022,14.3620052 87.444,15.4959939 87.444,16.72 C87.444,17.9440061 87.2220022,19.0779948 86.778,20.122 C86.3339978,21.1660052 85.7280038,22.0779961 84.96,22.858 C84.1919962,23.6380039 83.2980051,24.2499978 82.278,24.694 C81.2579949,25.1380022 80.1600059,25.36 78.984,25.36 C77.8079941,25.36 76.7100051,25.1380022 75.69,24.694 C74.6699949,24.2499978 73.7760038,23.6380039 73.008,22.858 C72.2399962,22.0779961 71.6340022,21.1660052 71.19,20.122 C70.7459978,19.0779948 70.524,17.9440061 70.524,16.72 Z M82.584,16.72 C82.584,15.4479936 82.2360035,14.4400037 81.54,13.696 C80.8439965,12.9519963 79.992005,12.58 78.984,12.58 C77.975995,12.58 77.1240035,12.9519963 76.428,13.696 C75.7319965,14.4400037 75.384,15.4479936 75.384,16.72 C75.384,17.9920064 75.7319965,18.9999963 76.428,19.744 C77.1240035,20.4880037 77.975995,20.86 78.984,20.86 C79.992005,20.86 80.8439965,20.4880037 81.54,19.744 C82.2360035,18.9999963 82.584,17.9920064 82.584,16.72 Z M108.72,13.66 L105.3,13.66 L105.3,25 L100.44,25 L100.44,13.66 L95.4,13.66 L95.4,25 L90.54,25 L90.54,13.66 L88.38,13.66 L88.38,9.16 L90.54,9.16 C90.54,7.07198956 91.0559948,5.50000528 92.088,4.444 C93.1200052,3.38799472 94.5839905,2.86 96.48,2.86 C96.8160017,2.86 97.1279986,2.87799982 97.416,2.914 C97.7040014,2.95000018 97.9559989,2.99199976 98.172,3.04 C98.4120012,3.11200036 98.627999,3.17199976 98.82,3.22 L98.82,7.54 L98.46,7.468 C98.3399994,7.44399988 98.2080007,7.42000012 98.064,7.396 C97.9199993,7.37199988 97.752001,7.36 97.56,7.36 C97.1039977,7.36 96.7380014,7.45599904 96.462,7.648 C96.1859986,7.84000096 95.9640008,8.04399892 95.796,8.26 C95.603999,8.52400132 95.4720004,8.82399832 95.4,9.16 L100.44,9.16 L100.44,8.26 C100.44,6.26799004 100.955995,4.75000522 101.988,3.706 C103.020005,2.66199478 104.483991,2.14 106.38,2.14 C106.716002,2.14 107.027999,2.15799982 107.316,2.194 C107.604001,2.23000018 107.855999,2.27199976 108.072,2.32 C108.312001,2.39200036 108.527999,2.45199976 108.72,2.5 L108.72,6.82 L108.36,6.748 C108.239999,6.72399988 108.108001,6.70000012 107.964,6.676 C107.819999,6.65199988 107.652001,6.64 107.46,6.64 C106.835997,6.64 106.320002,6.8499979 105.912,7.27 C105.503998,7.6900021 105.3,8.2599964 105.3,8.98 L105.3,9.16 L108.72,9.16 L108.72,13.66 Z M125.856,20.14 C125.639999,20.8120034 125.316002,21.4599969 124.884,22.084 C124.451998,22.7080031 123.912003,23.2659975 123.264,23.758 C122.615997,24.2500025 121.866004,24.6399986 121.014,24.928 C120.161996,25.2160014 119.196005,25.36 118.116,25.36 C116.987994,25.36 115.926005,25.1380022 114.93,24.694 C113.933995,24.2499978 113.058004,23.6380039 112.302,22.858 C111.545996,22.0779961 110.946002,21.1660052 110.502,20.122 C110.057998,19.0779948 109.836,17.9440061 109.836,16.72 C109.836,15.4959939 110.057998,14.3620052 110.502,13.318 C110.946002,12.2739948 111.551996,11.3620039 112.32,10.582 C113.088004,9.8019961 113.981995,9.19000222 115.002,8.746 C116.022005,8.30199778 117.119994,8.08 118.296,8.08 C119.424006,8.08 120.479995,8.28399796 121.464,8.692 C122.448005,9.10000204 123.305996,9.68199622 124.038,10.438 C124.770004,11.1940038 125.345998,12.1059947 125.766,13.174 C126.186002,14.2420053 126.396,15.4239935 126.396,16.72 C126.396,16.912001 126.384,17.0979991 126.36,17.278 C126.336,17.4580009 126.312,17.6319992 126.288,17.8 C126.264,17.992001 126.24,18.1719992 126.216,18.34 L114.876,18.34 C115.068001,18.9640031 115.457997,19.5399974 116.046,20.068 C116.634003,20.5960026 117.383995,20.86 118.296,20.86 C118.752002,20.86 119.141998,20.8060005 119.466,20.698 C119.790002,20.5899995 120.047999,20.4640007 120.24,20.32 C120.480001,20.1759993 120.671999,19.9960011 120.816,19.78 L125.856,20.14 Z M118.296,12.58 C117.383995,12.58 116.634003,12.8499973 116.046,13.39 C115.457997,13.9300027 115.068001,14.5599964 114.876,15.28 L121.716,15.28 C121.523999,14.5599964 121.134003,13.9300027 120.546,13.39 C119.957997,12.8499973 119.208005,12.58 118.296,12.58 Z M143.532,20.14 C143.315999,20.8120034 142.992002,21.4599969 142.56,22.084 C142.127998,22.7080031 141.588003,23.2659975 140.94,23.758 C140.291997,24.2500025 139.542004,24.6399986 138.69,24.928 C137.837996,25.2160014 136.872005,25.36 135.792,25.36 C134.663994,25.36 133.602005,25.1380022 132.606,24.694 C131.609995,24.2499978 130.734004,23.6380039 129.978,22.858 C129.221996,22.0779961 128.622002,21.1660052 128.178,20.122 C127.733998,19.0779948 127.512,17.9440061 127.512,16.72 C127.512,15.4959939 127.733998,14.3620052 128.178,13.318 C128.622002,12.2739948 129.227996,11.3620039 129.996,10.582 C130.764004,9.8019961 131.657995,9.19000222 132.678,8.746 C133.698005,8.30199778 134.795994,8.08 135.972,8.08 C137.100006,8.08 138.155995,8.28399796 139.14,8.692 C140.124005,9.10000204 140.981996,9.68199622 141.714,10.438 C142.446004,11.1940038 143.021998,12.1059947 143.442,13.174 C143.862002,14.2420053 144.072,15.4239935 144.072,16.72 C144.072,16.912001 144.06,17.0979991 144.036,17.278 C144.012,17.4580009 143.988,17.6319992 143.964,17.8 C143.94,17.992001 143.916,18.1719992 143.892,18.34 L132.552,18.34 C132.744001,18.9640031 133.133997,19.5399974 133.722,20.068 C134.310003,20.5960026 135.059995,20.86 135.972,20.86 C136.428002,20.86 136.817998,20.8060005 137.142,20.698 C137.466002,20.5899995 137.723999,20.4640007 137.916,20.32 C138.156001,20.1759993 138.347999,19.9960011 138.492,19.78 L143.532,20.14 Z M135.972,12.58 C135.059995,12.58 134.310003,12.8499973 133.722,13.39 C133.133997,13.9300027 132.744001,14.5599964 132.552,15.28 L139.392,15.28 C139.199999,14.5599964 138.810003,13.9300027 138.222,13.39 C137.633997,12.8499973 136.884005,12.58 135.972,12.58 Z" id="VKCofee"></path>
        </g>
    </g>
</svg>