<?xml version="1.0" encoding="UTF-8"?>
<svg width="135px" height="40px" viewBox="0 0 135 40" version="1.1" xmlns="http://www.w3.org/2000/svg" xmlns:xlink="http://www.w3.org/1999/xlink">
    <!-- Generator: Sketch 55 (78076) - https://sketchapp.com -->
    <title>googleplay_ru</title>
    <desc>Created with Sketch.</desc>
    <g id="Page-1" stroke="none" stroke-width="1" fill="none" fill-rule="evenodd">
        <g id="googleplay_ru">
            <rect id="Rectangle" fill="#000000" fill-rule="nonzero" x="0" y="0" width="135" height="40" rx="8"></rect>
            <path d="M49.405,19.77 C50.0910034,19.77 50.7209971,19.8854988 51.295,20.1165 C51.8690029,20.3475012 52.3659979,20.6694979 52.786,21.0825 C53.2060021,21.4955021 53.5349988,21.9749973 53.773,22.521 C54.0110012,23.0670027 54.13,23.6549969 54.13,24.285 C54.13,24.9150032 54.0110012,25.5029973 53.773,26.049 C53.5349988,26.5950027 53.2060021,27.0744979 52.786,27.4875 C52.3659979,27.9005021 51.8690029,28.2224988 51.295,28.4535 C50.7209971,28.6845012 50.0910034,28.8 49.405,28.8 L47.305,28.8 L47.305,33 L44.26,33 L44.26,19.77 L49.405,19.77 Z M49.405,25.86 C49.8810024,25.86 50.2799984,25.7025016 50.602,25.3875 C50.9240016,25.0724984 51.085,24.7050021 51.085,24.285 C51.085,23.8649979 50.9240016,23.4975016 50.602,23.1825 C50.2799984,22.8674984 49.8810024,22.71 49.405,22.71 L47.305,22.71 L47.305,25.86 L49.405,25.86 Z M60.531,30.06 C61.0350025,30.06 61.5039978,29.9655009 61.938,29.7765 C62.3720022,29.5874991 62.7499984,29.3320016 63.072,29.01 C63.3940016,28.6879984 63.6459991,28.3030022 63.828,27.855 C64.0100009,27.4069978 64.101,26.9170027 64.101,26.385 C64.101,25.8669974 64.0100009,25.3805023 63.828,24.9255 C63.6459991,24.4704977 63.3940016,24.0820016 63.072,23.76 C62.7499984,23.4379984 62.3720022,23.1825009 61.938,22.9935 C61.5039978,22.8044991 61.0350025,22.71 60.531,22.71 L59.061,22.71 L59.061,30.06 L60.531,30.06 Z M56.016,19.77 L60.531,19.77 C61.4550046,19.77 62.315996,19.9414983 63.114,20.2845 C63.912004,20.6275017 64.611997,21.099997 65.214,21.702 C65.816003,22.304003 66.2884983,23.003996 66.6315,23.802 C66.9745017,24.600004 67.146,25.4609954 67.146,26.385 C67.146,27.3090046 66.9745017,28.169996 66.6315,28.968 C66.2884983,29.766004 65.816003,30.465997 65.214,31.068 C64.611997,31.670003 63.912004,32.1424983 63.114,32.4855 C62.315996,32.8285017 61.4550046,33 60.531,33 L56.016,33 L56.016,19.77 Z M75.017,27.855 L73.547,23.445 L72.077,27.855 L75.017,27.855 Z M71.237,30.48 L70.397,33 L67.247,33 L71.972,19.77 L75.122,19.77 L79.847,33 L76.697,33 L75.857,30.48 L71.237,30.48 Z M80.998,19.77 L84.043,19.77 L84.043,30.06 L90.028,30.06 L90.028,33 L80.998,33 L80.998,19.77 Z M94.224,33 L91.389,33 L91.389,23.34 L94.224,23.34 L94.224,33 Z M91.284,20.715 C91.284,20.2949979 91.4414984,19.9275016 91.7565,19.6125 C92.0715016,19.2974984 92.4389979,19.14 92.859,19.14 C93.2790021,19.14 93.6464984,19.2974984 93.9615,19.6125 C94.2765016,19.9275016 94.434,20.2949979 94.434,20.715 C94.434,21.1350021 94.2765016,21.5024984 93.9615,21.8175 C93.6464984,22.1325016 93.2790021,22.29 92.859,22.29 C92.4389979,22.29 92.0715016,22.1325016 91.7565,21.8175 C91.4414984,21.5024984 91.284,21.1350021 91.284,20.715 Z M97.16,23.235 C97.16,22.0729942 97.460997,21.187503 98.063,20.5785 C98.665003,19.969497 99.5189945,19.665 100.625,19.665 C100.821001,19.665 101.002999,19.6754999 101.171,19.6965 C101.339001,19.7175001 101.485999,19.7419999 101.612,19.77 C101.752001,19.8120002 101.877999,19.8469999 101.99,19.875 L101.99,22.395 L101.78,22.353 C101.71,22.3389999 101.633,22.3250001 101.549,22.311 C101.465,22.2969999 101.367001,22.29 101.255,22.29 C100.890998,22.29 100.590001,22.4124988 100.352,22.6575 C100.113999,22.9025012 99.995,23.2349979 99.995,23.655 L99.995,23.76 L101.99,23.76 L101.99,26.385 L99.995,26.385 L99.995,33 L97.16,33 L97.16,26.385 L95.9,26.385 L95.9,23.76 L97.16,23.76 L97.16,23.235 Z M112.486,30.165 C112.359999,30.557002 112.171001,30.9349982 111.919,31.299 C111.666999,31.6630018 111.352002,31.9884986 110.974,32.2755 C110.595998,32.5625014 110.158502,32.7899992 109.6615,32.958 C109.164498,33.1260008 108.601003,33.21 107.971,33.21 C107.312997,33.21 106.693503,33.0805013 106.1125,32.8215 C105.531497,32.5624987 105.020502,32.2055023 104.5795,31.7505 C104.138498,31.2954977 103.788501,30.763503 103.5295,30.1545 C103.270499,29.545497 103.141,28.8840036 103.141,28.17 C103.141,27.4559964 103.270499,26.794503 103.5295,26.1855 C103.788501,25.576497 104.141998,25.0445023 104.59,24.5895 C105.038002,24.1344977 105.559497,23.7775013 106.1545,23.5185 C106.749503,23.2594987 107.389997,23.13 108.076,23.13 C108.734003,23.13 109.349997,23.2489988 109.924,23.487 C110.498003,23.7250012 110.998498,24.0644978 111.4255,24.5055 C111.852502,24.9465022 112.188499,25.4784969 112.4335,26.1015 C112.678501,26.7245031 112.801,27.4139962 112.801,28.17 C112.801,28.2820006 112.794,28.3904995 112.78,28.4955 C112.766,28.6005005 112.752,28.7019995 112.738,28.8 C112.724,28.9120006 112.71,29.0169995 112.696,29.115 L106.081,29.115 C106.193001,29.4790018 106.420498,29.8149985 106.7635,30.123 C107.106502,30.4310015 107.543997,30.585 108.076,30.585 C108.342001,30.585 108.569499,30.5535003 108.7585,30.4905 C108.947501,30.4274997 109.097999,30.3540004 109.21,30.27 C109.350001,30.1859996 109.462,30.0810006 109.546,29.955 L112.486,30.165 Z M108.076,25.755 C107.543997,25.755 107.106502,25.9124984 106.7635,26.2275 C106.420498,26.5425016 106.193001,26.9099979 106.081,27.33 L110.071,27.33 C109.958999,26.9099979 109.731502,26.5425016 109.3885,26.2275 C109.045498,25.9124984 108.608003,25.755 108.076,25.755 Z" id="PDALife" fill="#FFFFFF" fill-rule="nonzero"></path>
            <g id="logo" transform="translate(44.000000, 6.000000)" fill="#FFFFFF" fill-rule="nonzero" stroke="#FFFFFF" stroke-width="0.2">
                <path d="M1.1,8.3 L0.4,8.3 L0.4,6.3 L1,6.3 C1.5,5.9 1.8,5.1 1.8,4 L1.8,1 L5.8,1 L5.8,6.3 L6.5,6.3 L6.5,8.3 L5.8,8.3 L5.8,7 L1.2,7 L1.2,8.3 L1.1,8.3 Z M2.5,4 C2.5,4.9 2.3,5.7 1.9,6.3 L4.9,6.3 L4.9,1.8 L2.4,1.8 L2.4,4 L2.5,4 Z M12.4,6.2 C11.8,6.8 11.1,7.1 10.2,7.1 C9.3,7.1 8.6,6.8 8,6.2 C7.4,5.6 7.1,4.9 7.1,4 C7.1,3.1 7.4,2.4 8,1.8 C8.6,1.2 9.3,0.9 10.2,0.9 C11.1,0.9 11.8,1.2 12.4,1.8 C13,2.4 13.3,3.1 13.3,4 C13.3,4.9 13,5.6 12.4,6.2 Z M8.6,5.7 C9,6.1 9.6,6.4 10.2,6.4 C10.8,6.4 11.4,6.2 11.8,5.7 C12.2,5.3 12.5,4.7 12.5,4 C12.5,3.3 12.3,2.7 11.8,2.3 C11.4,1.9 10.8,1.6 10.2,1.6 C9.6,1.6 9,1.8 8.6,2.3 C8.2,2.7 7.9,3.3 7.9,4 C7.9,4.7 8.1,5.3 8.6,5.7 Z M17.2,7.1 C16.3,7.1 15.6,6.8 15,6.2 C14.4,5.6 14.1,4.9 14.1,4 C14.1,3.1 14.4,2.4 15,1.8 C15.6,1.2 16.3,0.9 17.2,0.9 C18.1,0.9 18.8,1.2 19.4,1.9 L18.9,2.4 C18.5,1.9 17.9,1.6 17.2,1.6 C16.5,1.6 16,1.8 15.5,2.3 C15,2.7 14.8,3.3 14.8,4 C14.8,4.7 15,5.3 15.5,5.7 C15.9,6.1 16.5,6.4 17.2,6.4 C17.9,6.4 18.5,6.1 19,5.5 L19.5,6 C19.2,6.3 18.9,6.6 18.5,6.8 C18.1,7 17.7,7.1 17.2,7.1 L17.2,7.1 Z M22.7,7 L21.9,7 L21.9,1.7 L20.2,1.7 L20.2,1 L24.3,1 L24.3,1.7 L22.6,1.7 L22.6,7 L22.7,7 Z M29.6,1 L27.3,6.1 C27,6.8 26.5,7.2 25.9,7.2 C25.7,7.2 25.5,7.2 25.3,7.1 L25.5,6.4 C25.6,6.5 25.8,6.5 25.9,6.5 C26.1,6.5 26.2,6.5 26.3,6.4 C26.4,6.3 26.5,6.2 26.6,6 L26.8,5.5 L24.8,1.1 L25.7,1.1 L27.2,4.5 L28.6,1.1 L29.6,1.1 L29.6,1 Z M30.5,7 L30.5,1 L34.8,1 L34.8,7 L34,7 L34,1.7 L31.2,1.7 L31.2,7 L30.5,7 Z M36.2,7 L36.2,1 L37,1 L37,3.6 L40,3.6 L40,1 L40.8,1 L40.8,7 L40,7 L40,4.3 L37,4.3 L37,7 L36.2,7 Z M47.1,6.2 C46.5,6.8 45.8,7.1 44.9,7.1 C44,7.1 43.3,6.8 42.7,6.2 C42.1,5.6 41.8,4.9 41.8,4 C41.8,3.1 42.1,2.4 42.7,1.8 C43.3,1.2 44,0.9 44.9,0.9 C45.8,0.9 46.5,1.2 47.1,1.8 C47.7,2.4 48,3.1 48,4 C47.9,4.9 47.6,5.6 47.1,6.2 Z M43.2,5.7 C43.6,6.1 44.2,6.4 44.8,6.4 C45.4,6.4 46,6.2 46.4,5.7 C46.8,5.3 47.1,4.7 47.1,4 C47.1,3.3 46.9,2.7 46.4,2.3 C46,1.9 45.4,1.6 44.8,1.6 C44.2,1.6 43.6,1.8 43.2,2.3 C42.8,2.7 42.5,3.3 42.5,4 C42.5,4.7 42.8,5.3 43.2,5.7 Z M51.1,7 L51.1,1 L53.3,1 C53.8,1 54.2,1.2 54.5,1.5 C54.8,1.8 55,2.2 55,2.7 C55,3 54.9,3.2 54.8,3.5 C54.7,3.7 54.5,3.9 54.2,4 C54.5,4.1 54.7,4.3 54.9,4.5 C55.1,4.7 55.2,5 55.2,5.4 C55.2,5.9 55,6.3 54.7,6.6 C54.3,6.9 53.9,7.1 53.4,7.1 L51.1,7.1 L51.1,7 Z M51.9,3.6 L53.3,3.6 C53.6,3.6 53.8,3.5 54,3.3 C54.2,3.1 54.3,2.9 54.3,2.7 C54.3,2.5 54.2,2.3 54,2.1 C53.8,1.9 53.6,1.8 53.3,1.8 L51.9,1.8 L51.9,3.6 Z M51.9,6.3 L53.5,6.3 C53.8,6.3 54,6.2 54.2,6 C54.4,5.8 54.5,5.6 54.5,5.3 C54.5,5.1 54.4,4.8 54.2,4.6 C54,4.4 53.8,4.3 53.5,4.3 L52,4.3 L52,6.3 L51.9,6.3 Z" id="Shape"></path>
            </g>
            <g id="Group" transform="translate(10.000000, 10.000000)">
                <g>
                    <path d="M1.89473684,13.7863636 C2.51388609,13.7871724 3.06774656,14.1855326 3.28508772,14.7863636 L4.23684211,14.2136364 L5.06578947,15.7181818 L4.12719298,16.2772727 C4.33692901,16.5497283 4.45134307,16.8878261 4.45175439,17.2363636 C4.45175439,18.0760875 3.79490899,18.7568182 2.98464912,18.7568182 C2.17438926,18.7568182 1.51754386,18.0760875 1.51754386,17.2363636 C1.51086641,17.0822244 1.53168254,16.9281309 1.57894737,16.7818182 C0.906913758,16.6320679 0.426593786,16.0169329 0.425438596,15.3045455 C0.425406453,14.4638425 1.07917839,13.7802113 1.89035088,13.7727273 L1.89035088,13.7727273 L1.89473684,13.7863636 Z" id="Path" fill="#FFFFFF"></path>
                    <path d="M22.9210526,13.7863636 C22.3063273,13.7915235 21.7584548,14.1893418 21.5438596,14.7863636 L20.5921053,14.2136364 L19.75,15.7181818 L20.7017544,16.2772727 C20.4827746,16.5452139 20.3630464,16.8852306 20.3640351,17.2363636 C20.3640351,18.0798531 21.023826,18.7636364 21.8377193,18.7636364 C22.6516126,18.7636364 23.3114035,18.0798531 23.3114035,17.2363636 C23.3115265,17.0826196 23.2908576,16.9296163 23.25,16.7818182 C23.9220336,16.6320679 24.4023536,16.0169329 24.4035088,15.3045455 C24.4011001,14.4595818 23.7407544,13.7752235 22.9254386,13.7727273 L22.9254386,13.7727273 L22.9210526,13.7863636 Z" id="Path" fill="#FFFFFF"></path>
                    <path d="M12.4649123,0.359090909 C17.5954678,0.371637827 21.7457006,4.69041266 21.7368272,10.0075407 C21.7279537,15.3246688 17.5633311,19.6285399 12.4327644,19.6226946 C7.30219769,19.6168494 3.14671587,15.3034991 3.14912281,9.98636364 C3.1502806,7.42869173 4.13297598,4.97651936 5.88053208,3.17053187 C7.62808818,1.36454439 9.99698984,0.353055535 12.4649123,0.359090909 L12.4649123,0.359090909 L12.4649123,0.359090909 Z" id="Path" fill="#FFFFFF"></path>
                    <path d="M12.4649123,16.3227273 C15.4021406,16.3126933 17.7767517,13.8395385 17.7719153,10.7954895 C17.767079,7.75144044 15.3846223,5.28640325 12.447378,5.28639361 C9.51013372,5.28638398 7.12766193,7.75140554 7.12280702,10.7954545 C7.12396977,12.2625841 7.68745044,13.6691451 8.68928962,14.7057099 C9.6911288,15.7422747 11.049261,16.3239333 12.4649123,16.3227273 L12.4649123,16.3227273 Z" id="Path" fill="#0A90D5"></path>
                    <path d="M12.4649123,14.05 C14.1794494,14.0424743 15.5646094,12.5981388 15.5613856,10.821242 C15.5581617,9.0443453 14.1677707,7.60541837 12.4532184,7.60457472 C10.738666,7.60373107 9.34695718,9.04128905 9.34210526,10.8181818 C9.34210444,11.6761014 9.67125343,12.4988166 10.2570198,13.1050309 C10.8427861,13.7112452 11.6370959,14.0512066 12.4649123,14.05 L12.4649123,14.05 L12.4649123,14.05 Z" id="Path" fill="#333333"></path>
                    <path d="M10.6666667,13.1909091 C11.3933571,13.1909091 11.9824561,12.5803883 11.9824561,11.8272727 C11.9824561,11.0741572 11.3933571,10.4636364 10.6666667,10.4636364 C9.93997621,10.4636364 9.35087719,11.0741572 9.35087719,11.8272727 C9.35087719,12.5803883 9.93997621,13.1909091 10.6666667,13.1909091 L10.6666667,13.1909091 Z" id="Path" fill="#FFFFFF"></path>
                    <path d="M14.4473684,0.218181818 C11.7144109,-0.387359614 8.86279051,0.283755226 6.65023806,2.05319813 C4.43768562,3.82264104 3.08825876,6.51122655 2.96052632,9.40454545 C3.6125731,9.59848485 4.31432749,9.76666667 5.06578947,9.90909091 C6.34688083,10.1563143 7.63958715,10.3338302 8.93859649,10.4409091 C10.0657895,10.5318182 11.245614,10.5727273 12.4473684,10.5727273 C15.6512608,10.6177864 18.846909,10.22501 21.9517544,9.40454545 C21.8311348,6.65148017 20.6011247,4.07726848 18.5614035,2.30909091 C18.238177,2.02423606 17.8951436,1.76444228 17.5350877,1.53181818 C16.5826334,0.905806893 15.5293243,0.462387928 14.4254386,0.222727273 L14.4254386,0.222727273 L14.4473684,0.218181818 Z" id="Path" fill="#B905FC"></path>
                    <path d="M8.94298246,10.4409091 L17.004386,2.1 L17.5570175,1.52727273 C16.6045632,0.901261438 15.5512541,0.457842474 14.4473684,0.218181818 L12.8596491,1.86818182 L5.0877193,9.90909091 C6.36881065,10.1563143 7.66151698,10.3338302 8.96052632,10.4409091 L8.96052632,10.4409091 L8.94298246,10.4409091 Z" id="Path" fill="#D369FC"></path>
                    <path d="M19.4385965,3.14090909 C20.4166667,3.41363636 22.7850877,4.60454545 21.495614,5.75909091 C21.4071264,5.83616501 21.3099214,5.90179849 21.2061404,5.95454545 C21.1316186,5.9960288 21.0519149,6.02662214 20.9692982,6.04545455 C19.6535088,6.38181818 17.8991228,4.45 17.245614,3.54090909 C17.1737598,3.46282125 17.0733791,3.41988786 16.9692982,3.42272727 C16.8755139,3.42020145 16.7848438,3.45770135 16.7185059,3.52645157 C16.652168,3.5952018 16.6159839,3.68916895 16.6184211,3.78636364 C16.6211382,3.83879119 16.6299745,3.89068446 16.6447368,3.94090909 C16.4824561,4.05909091 19.3508772,8.61818182 21.7105263,8.94090909 C21.7795702,8.98252147 21.8513898,9.01897759 21.9254386,9.05 L21.9254386,9.05 C24.6447368,9.05 24.9473684,6.67272727 24.9473684,6.67272727 C25.4868421,3.69090909 20.2324561,2.77727273 18.8552632,2.58181818 C19.0570175,2.77727273 19.245614,2.92727273 19.4342105,3.12272727 L19.4342105,3.12272727 L19.4385965,3.14090909 Z" id="Shape" fill="#FFFFFF"></path>
                </g>
            </g>
        </g>
    </g>
</svg>