<?xml version="1.0" encoding="UTF-8"?>
<svg width="135px" height="40px" viewBox="0 0 135 40" version="1.1" xmlns="http://www.w3.org/2000/svg" xmlns:xlink="http://www.w3.org/1999/xlink">
    <!-- Generator: Sketch 55 (78076) - https://sketchapp.com -->
    <title>googleplay_ru</title>
    <desc>Created with Sketch.</desc>
    <g id="Page-1" stroke="none" stroke-width="1" fill="none" fill-rule="evenodd">
        <g id="googleplay_ru">
            <rect id="Rectangle" fill="#000000" fill-rule="nonzero" x="0" y="0" width="135" height="40" rx="8"></rect>
            <path d="M41.315,17.77 L51.605,17.77 L51.605,20.185 L47.72,20.185 L47.72,31 L45.2,31 L45.2,20.185 L41.315,20.185 L41.315,17.77 Z M57.061,21.235 C57.1730006,21.235 57.2709996,21.2419999 57.355,21.256 C57.4390004,21.2700001 57.5159996,21.2839999 57.586,21.298 L57.796,21.34 L57.796,23.86 C57.7259997,23.8459999 57.6490004,23.8320001 57.565,23.818 C57.4949996,23.8039999 57.4075005,23.7900001 57.3025,23.776 C57.1974995,23.7619999 57.0820006,23.755 56.956,23.755 C56.3679971,23.755 55.8885019,23.9474981 55.5175,24.3325 C55.1464981,24.7175019 54.961,25.2249969 54.961,25.855 L54.961,31 L52.546,31 L52.546,21.34 L54.331,21.34 L54.751,22.39 C54.9190008,22.1799989 55.1219988,21.9910008 55.36,21.823 C55.556001,21.6689992 55.7974986,21.5325006 56.0845,21.4135 C56.3715014,21.2944994 56.6969982,21.235 57.061,21.235 Z M63.252,21.235 C63.7980027,21.235 64.3019977,21.3294991 64.764,21.5185 C65.2260023,21.7075009 65.6249983,21.9699983 65.961,22.306 C66.2970017,22.6420017 66.5594991,23.0409977 66.7485,23.503 C66.9375009,23.9650023 67.032,24.4689973 67.032,25.015 L67.032,31 L65.247,31 L64.827,30.055 C64.6029989,30.251001 64.3580013,30.4259992 64.092,30.58 C63.8539988,30.7200007 63.5670017,30.8424995 63.231,30.9475 C62.8949983,31.0525005 62.5170021,31.105 62.097,31.105 C61.0469947,31.105 60.2420028,30.8495026 59.682,30.3385 C59.1219972,29.8274974 58.842,29.173004 58.842,28.375 C58.842,27.8989976 58.9364991,27.461502 59.1255,27.0625 C59.3145009,26.663498 59.6329978,26.3205014 60.081,26.0335 C60.5290022,25.7464986 61.1204963,25.5225008 61.8555,25.3615 C62.5905037,25.2004992 63.5109945,25.12 64.617,25.12 C64.617,24.5879973 64.4735014,24.1750015 64.1865,23.881 C63.8994986,23.5869985 63.5180024,23.44 63.042,23.44 C62.7199984,23.44 62.4645009,23.4959994 62.2755,23.608 C62.0864991,23.7200006 61.9360006,23.8389994 61.824,23.965 C61.6979994,24.1190008 61.6140002,24.293999 61.572,24.49 L59.157,24.49 C59.2130003,24.0419978 59.342499,23.622002 59.5455,23.23 C59.748501,22.837998 60.0249982,22.4950015 60.375,22.201 C60.7250017,21.9069985 61.1414976,21.6725009 61.6245,21.4975 C62.1075024,21.3224991 62.649997,21.235 63.252,21.235 Z M62.517,29.215 C63.1470032,29.215 63.6544981,29.0295019 64.0395,28.6585 C64.4245019,28.2874981 64.617,27.8080029 64.617,27.22 L64.617,26.8 C63.9029964,26.8 63.3290022,26.8314997 62.895,26.8945 C62.4609978,26.9575003 62.1215012,27.0484994 61.8765,27.1675 C61.6314988,27.2865006 61.4670004,27.4299992 61.383,27.598 C61.2989996,27.7660008 61.257,27.954999 61.257,28.165 C61.257,28.4310013 61.3759988,28.6724989 61.614,28.8895 C61.8520012,29.1065011 62.1529982,29.215 62.517,29.215 Z M71.018,27.955 C71.0740003,28.2770016 71.2279987,28.5499989 71.48,28.774 C71.7320013,28.9980011 72.0679979,29.11 72.488,29.11 C72.9080021,29.11 73.2404988,29.0015011 73.4855,28.7845 C73.7305012,28.5674989 73.853,28.3260013 73.853,28.06 C73.853,27.8359989 73.7305012,27.6610006 73.4855,27.535 C73.2404988,27.4089994 72.9360018,27.2935005 72.572,27.1885 C72.2079982,27.0834995 71.8125021,26.9750006 71.3855,26.863 C70.9584979,26.7509994 70.5630018,26.5865011 70.199,26.3695 C69.8349982,26.1524989 69.5305012,25.8725017 69.2855,25.5295 C69.0404988,25.1864983 68.918,24.7350028 68.918,24.175 C68.918,23.782998 68.9984992,23.4085018 69.1595,23.0515 C69.3205008,22.6944982 69.5549985,22.3830013 69.863,22.117 C70.1710015,21.8509987 70.5349979,21.6375008 70.955,21.4765 C71.3750021,21.3154992 71.8509973,21.235 72.383,21.235 C73.5450058,21.235 74.4374969,21.5149972 75.0605,22.075 C75.6835031,22.6350028 76.0509994,23.3349958 76.163,24.175 L73.853,24.175 C73.7969997,23.964999 73.6465012,23.7550011 73.4015,23.545 C73.1564988,23.3349989 72.8520018,23.23 72.488,23.23 C72.1239982,23.23 71.840501,23.3209991 71.6375,23.503 C71.434499,23.6850009 71.333,23.9089987 71.333,24.175 C71.333,24.3990011 71.4554988,24.5739994 71.7005,24.7 C71.9455012,24.8260006 72.2499982,24.9414995 72.614,25.0465 C72.9780018,25.1515005 73.3734979,25.2634994 73.8005,25.3825 C74.2275021,25.5015006 74.6229982,25.6729989 74.987,25.897 C75.3510018,26.1210011 75.6554988,26.4114982 75.9005,26.7685 C76.1455012,27.1255018 76.268,27.5909971 76.268,28.165 C76.268,28.557002 76.1840008,28.9314982 76.016,29.2885 C75.8479992,29.6455018 75.6100015,29.9569987 75.302,30.223 C74.9939985,30.4890013 74.6195022,30.7024992 74.1785,30.8635 C73.7374978,31.0245008 73.2440027,31.105 72.698,31.105 C71.4379937,31.105 70.4825033,30.8180029 69.8315,30.244 C69.1804967,29.6699971 68.8060005,28.9070048 68.708,27.955 L71.018,27.955 Z M83.194,21.235 C83.7120026,21.235 84.1984977,21.3294991 84.6535,21.5185 C85.1085023,21.7075009 85.4969984,21.9804982 85.819,22.3375 C86.1410016,22.6945018 86.3964991,23.1249975 86.5855,23.629 C86.7745009,24.1330025 86.869,24.6999968 86.869,25.33 L86.869,31 L84.454,31 L84.454,25.645 C84.454,25.0149968 84.2685019,24.5075019 83.8975,24.1225 C83.5264981,23.7374981 83.0470029,23.545 82.459,23.545 C81.8709971,23.545 81.3915019,23.7374981 81.0205,24.1225 C80.6494981,24.5075019 80.464,25.0149968 80.464,25.645 L80.464,31 L78.049,31 L78.049,17.77 L80.464,17.77 L80.464,22.285 C80.6460009,22.088999 80.8629987,21.9140008 81.115,21.76 C81.3390011,21.6339994 81.6224983,21.5150006 81.9655,21.403 C82.3085017,21.2909994 82.7179976,21.235 83.194,21.235 Z M97.155,23.965 C97.547002,24.1470009 97.8969985,24.3849985 98.205,24.679 C98.4710013,24.9310013 98.7124989,25.2669979 98.9295,25.687 C99.1465011,26.1070021 99.255,26.617997 99.255,27.22 C99.255,27.7240025 99.1500011,28.2034977 98.94,28.6585 C98.729999,29.1135023 98.4325019,29.5124983 98.0475,29.8555 C97.6624981,30.1985017 97.2075026,30.4749989 96.6825,30.685 C96.1574974,30.895001 95.5800032,31 94.95,31 L89.28,31 L89.28,17.77 L94.74,17.77 C95.3140029,17.77 95.8459976,17.867999 96.336,18.064 C96.8260025,18.260001 97.2494982,18.5259983 97.6065,18.862 C97.9635018,19.1980017 98.239999,19.5864978 98.436,20.0275 C98.632001,20.4685022 98.73,20.9409975 98.73,21.445 C98.73,21.8930022 98.6460008,22.2779984 98.478,22.6 C98.3099992,22.9220016 98.128001,23.180999 97.932,23.377 C97.6939988,23.6150012 97.4350014,23.8109992 97.155,23.965 Z M91.8,23.125 L94.53,23.125 C95.0060024,23.125 95.4049984,22.9675016 95.727,22.6525 C96.0490016,22.3374984 96.21,21.9700021 96.21,21.55 C96.21,21.1299979 96.0490016,20.7625016 95.727,20.4475 C95.4049984,20.1324984 95.0060024,19.975 94.53,19.975 L91.8,19.975 L91.8,23.125 Z M94.74,28.795 C95.3280029,28.795 95.8074981,28.6130018 96.1785,28.249 C96.5495019,27.8849982 96.735,27.4370027 96.735,26.905 C96.735,26.3729973 96.5495019,25.9250018 96.1785,25.561 C95.8074981,25.1969982 95.3280029,25.015 94.74,25.015 L91.8,25.015 L91.8,28.795 L94.74,28.795 Z M102.926,26.17 C102.926,26.968004 103.156998,27.6049976 103.619,28.081 C104.081002,28.5570024 104.654997,28.795 105.341,28.795 C106.027003,28.795 106.600998,28.5570024 107.063,28.081 C107.525002,27.6049976 107.756,26.968004 107.756,26.17 C107.756,25.371996 107.525002,24.7350024 107.063,24.259 C106.600998,23.7829976 106.027003,23.545 105.341,23.545 C104.654997,23.545 104.081002,23.7829976 103.619,24.259 C103.156998,24.7350024 102.926,25.371996 102.926,26.17 Z M110.171,26.17 C110.171,26.8560034 110.041501,27.496497 109.7825,28.0915 C109.523499,28.686503 109.173502,29.2079978 108.7325,29.656 C108.291498,30.1040022 107.780503,30.4574987 107.1995,30.7165 C106.618497,30.9755013 105.999003,31.105 105.341,31.105 C104.682997,31.105 104.063503,30.9755013 103.4825,30.7165 C102.901497,30.4574987 102.390502,30.1040022 101.9495,29.656 C101.508498,29.2079978 101.158501,28.686503 100.8995,28.0915 C100.640499,27.496497 100.511,26.8560034 100.511,26.17 C100.511,25.4839966 100.640499,24.843503 100.8995,24.2485 C101.158501,23.653497 101.508498,23.1320022 101.9495,22.684 C102.390502,22.2359978 102.901497,21.8825013 103.4825,21.6235 C104.063503,21.3644987 104.682997,21.235 105.341,21.235 C105.999003,21.235 106.618497,21.3644987 107.1995,21.6235 C107.780503,21.8825013 108.291498,22.2359978 108.7325,22.684 C109.173502,23.1320022 109.523499,23.653497 109.7825,24.2485 C110.041501,24.843503 110.171,25.4839966 110.171,26.17 Z M113.212,31 L110.587,31 L113.842,26.065 L110.797,21.34 L113.422,21.34 L115.312,24.385 L117.202,21.34 L119.827,21.34 L116.782,26.065 L120.037,31 L117.412,31 L115.312,27.745 L113.212,31 Z" id="TrashBox" fill="#FFFFFF" fill-rule="nonzero"></path>
            <g id="logo" transform="translate(41.000000, 6.000000)" fill="#FFFFFF" fill-rule="nonzero" stroke="#FFFFFF" stroke-width="0.2">
                <path d="M1.1,8.3 L0.4,8.3 L0.4,6.3 L1,6.3 C1.5,5.9 1.8,5.1 1.8,4 L1.8,1 L5.8,1 L5.8,6.3 L6.5,6.3 L6.5,8.3 L5.8,8.3 L5.8,7 L1.2,7 L1.2,8.3 L1.1,8.3 Z M2.5,4 C2.5,4.9 2.3,5.7 1.9,6.3 L4.9,6.3 L4.9,1.8 L2.4,1.8 L2.4,4 L2.5,4 Z M12.4,6.2 C11.8,6.8 11.1,7.1 10.2,7.1 C9.3,7.1 8.6,6.8 8,6.2 C7.4,5.6 7.1,4.9 7.1,4 C7.1,3.1 7.4,2.4 8,1.8 C8.6,1.2 9.3,0.9 10.2,0.9 C11.1,0.9 11.8,1.2 12.4,1.8 C13,2.4 13.3,3.1 13.3,4 C13.3,4.9 13,5.6 12.4,6.2 Z M8.6,5.7 C9,6.1 9.6,6.4 10.2,6.4 C10.8,6.4 11.4,6.2 11.8,5.7 C12.2,5.3 12.5,4.7 12.5,4 C12.5,3.3 12.3,2.7 11.8,2.3 C11.4,1.9 10.8,1.6 10.2,1.6 C9.6,1.6 9,1.8 8.6,2.3 C8.2,2.7 7.9,3.3 7.9,4 C7.9,4.7 8.1,5.3 8.6,5.7 Z M17.2,7.1 C16.3,7.1 15.6,6.8 15,6.2 C14.4,5.6 14.1,4.9 14.1,4 C14.1,3.1 14.4,2.4 15,1.8 C15.6,1.2 16.3,0.9 17.2,0.9 C18.1,0.9 18.8,1.2 19.4,1.9 L18.9,2.4 C18.5,1.9 17.9,1.6 17.2,1.6 C16.5,1.6 16,1.8 15.5,2.3 C15,2.7 14.8,3.3 14.8,4 C14.8,4.7 15,5.3 15.5,5.7 C15.9,6.1 16.5,6.4 17.2,6.4 C17.9,6.4 18.5,6.1 19,5.5 L19.5,6 C19.2,6.3 18.9,6.6 18.5,6.8 C18.1,7 17.7,7.1 17.2,7.1 L17.2,7.1 Z M22.7,7 L21.9,7 L21.9,1.7 L20.2,1.7 L20.2,1 L24.3,1 L24.3,1.7 L22.6,1.7 L22.6,7 L22.7,7 Z M29.6,1 L27.3,6.1 C27,6.8 26.5,7.2 25.9,7.2 C25.7,7.2 25.5,7.2 25.3,7.1 L25.5,6.4 C25.6,6.5 25.8,6.5 25.9,6.5 C26.1,6.5 26.2,6.5 26.3,6.4 C26.4,6.3 26.5,6.2 26.6,6 L26.8,5.5 L24.8,1.1 L25.7,1.1 L27.2,4.5 L28.6,1.1 L29.6,1.1 L29.6,1 Z M30.5,7 L30.5,1 L34.8,1 L34.8,7 L34,7 L34,1.7 L31.2,1.7 L31.2,7 L30.5,7 Z M36.2,7 L36.2,1 L37,1 L37,3.6 L40,3.6 L40,1 L40.8,1 L40.8,7 L40,7 L40,4.3 L37,4.3 L37,7 L36.2,7 Z M47.1,6.2 C46.5,6.8 45.8,7.1 44.9,7.1 C44,7.1 43.3,6.8 42.7,6.2 C42.1,5.6 41.8,4.9 41.8,4 C41.8,3.1 42.1,2.4 42.7,1.8 C43.3,1.2 44,0.9 44.9,0.9 C45.8,0.9 46.5,1.2 47.1,1.8 C47.7,2.4 48,3.1 48,4 C47.9,4.9 47.6,5.6 47.1,6.2 Z M43.2,5.7 C43.6,6.1 44.2,6.4 44.8,6.4 C45.4,6.4 46,6.2 46.4,5.7 C46.8,5.3 47.1,4.7 47.1,4 C47.1,3.3 46.9,2.7 46.4,2.3 C46,1.9 45.4,1.6 44.8,1.6 C44.2,1.6 43.6,1.8 43.2,2.3 C42.8,2.7 42.5,3.3 42.5,4 C42.5,4.7 42.8,5.3 43.2,5.7 Z M51.1,7 L51.1,1 L53.3,1 C53.8,1 54.2,1.2 54.5,1.5 C54.8,1.8 55,2.2 55,2.7 C55,3 54.9,3.2 54.8,3.5 C54.7,3.7 54.5,3.9 54.2,4 C54.5,4.1 54.7,4.3 54.9,4.5 C55.1,4.7 55.2,5 55.2,5.4 C55.2,5.9 55,6.3 54.7,6.6 C54.3,6.9 53.9,7.1 53.4,7.1 L51.1,7.1 L51.1,7 Z M51.9,3.6 L53.3,3.6 C53.6,3.6 53.8,3.5 54,3.3 C54.2,3.1 54.3,2.9 54.3,2.7 C54.3,2.5 54.2,2.3 54,2.1 C53.8,1.9 53.6,1.8 53.3,1.8 L51.9,1.8 L51.9,3.6 Z M51.9,6.3 L53.5,6.3 C53.8,6.3 54,6.2 54.2,6 C54.4,5.8 54.5,5.6 54.5,5.3 C54.5,5.1 54.4,4.8 54.2,4.6 C54,4.4 53.8,4.3 53.5,4.3 L52,4.3 L52,6.3 L51.9,6.3 Z" id="Shape"></path>
            </g>
            <g id="Group-2" transform="translate(10.000000, 10.000000)">
                <rect id="Rectangle" fill="#FE4400" x="0" y="0" width="22" height="5"></rect>
                <rect id="Rectangle" fill="#33CBFE" x="4" y="5" width="4" height="12"></rect>
                <rect id="Rectangle" fill="#33CBFE" x="14" y="5" width="4" height="12"></rect>
                <rect id="Rectangle" fill="#FE4400" x="8" y="17" width="6" height="3"></rect>
                <rect id="Rectangle" fill="#000000" x="4" y="2" width="14" height="3"></rect>
            </g>
        </g>
    </g>
</svg>